<?xml version="1.0" encoding="UTF-8" standalone="no"?>
<svg xmlns="http://www.w3.org/2000/svg" xmlns:xlink="http://www.w3.org/1999/xlink" version="1.1" viewBox="3 0 1068 713.5" height="704" width="1061" id="Slovenia_Občina_2011">
<rect width="100%" height="100%" fill="white"/>
<rect x="900" y="400" width="120" height="50" style="fill:#00ff00;"></rect>
<rect x="900" y="450" width="120" height="50" style="fill:#ffff00;"></rect>
<rect x="900" y="500" width="120" height="50" style="fill:#ffa500;"></rect>
<rect x="900" y="550" width="120" height="50" style="fill:#ff0000;"></rect>
<rect x="900" y="600" width="120" height="50" style="fill:#000000;"></rect>
<rect x="780" y="400" width="120" height="50" style="fill:#7e7e7e;"></rect>
<text style="white-space: pre; fill:black; font-family: Arial, sans-serif; font-size: 21.7px;" x="810" y="358">Število obsojencev</text>
<text style="white-space: pre; fill:black; font-family: Arial, sans-serif; font-size: 21.7px;" x="804" y="382">na 1000 prebivalcev</text>
<text style="white-space: pre; fill:black; font-family: Arial, sans-serif; font-size: 21.7px;" x="919" y="432">0.0 - 2.5</text>
<text style="white-space: pre; fill:black; font-family: Arial, sans-serif; font-size: 21.7px;" x="919" y="482">2.5 - 5.0</text>
<text style="white-space: pre; fill:black; font-family: Arial, sans-serif; font-size: 21.7px;" x="919" y="532">5.0 - 7.5</text>
<text style="white-space: pre; fill:white; font-family: Arial, sans-serif; font-size: 21.7px;" x="915" y="582">7.5 - 10.0</text>
<text style="white-space: pre; fill:white; font-family: Arial, sans-serif; font-size: 21.7px;" x="932" y="632">&gt;10.0</text>
<text style="white-space: pre; fill:white; font-family: Arial, sans-serif; font-size: 21.7px;" x="789" y="432">Ni podatka</text><text x="20" y="100" style="font-weight: bold; font-size:64px; font-family:Helvetica; fill:black;">Leto: 2016</text>
<text style="white-space: pre; fill:white; font-family: Arial, sans-serif; font-size: 21.7px;" x="789" y="432">Ni podatka</text>
<path id="ajdovscina" fill="#9aff00" d="m 155.8,412.9 -3.7,1.4 6.6,8.9 -11.5,3.6 -9.1,-2.5 2,11.3 -4.1,8.7 -7.5,8.4 -5.5,1.3 -3,3.4 3,3.3 0.6,4.7 7.7,2.4 6.8,4.8 -1.6,1.5 3.5,6.2 7.3,4.6 3.4,-0.3 0.2,5.5 2.2,3.4 3.4,1.1 11.2,-1.5 0.7,-5.7 8.5,-3.8 9.7,-9.3 2,0.6 3.1,-5.2 5.9,-0.7 9,3.2 3.6,4.4 -1.9,2.7 1.2,5.8 4.5,4.2 4.9,-0.2 17.2,-5.5 2.7,-6 6.1,-3.5 -1.8,-4.2 -12.5,-2.7 -3.6,-2.7 -3.1,2.2 -4.5,0.6 -4.5,-5.3 -0.9,-3.6 -5.9,-3 -5.7,-1.6 0.2,-2.1 -11.5,-7.8 -2.9,1.4 -2.8,-4.3 -3.5,-1.3 -7.3,-8.8 -1.1,-3.8 -3.7,0.4 -6.1,-3 -3.3,-3 -0.3,-5.5 z"><title>Ajdovščina</title></path>
<path id="beltinci" fill="#ffed00" d="m 948,108.8 -1.8,-0.1 -4.6,-6.8 -2.7,8.3 -9.3,-3.7 -6.1,5.8 -4.1,1.2 -2.9,6.4 -4.2,-2.6 -0.9,6.4 -8.4,6.4 -3.5,0.2 6.1,3.9 9.5,4.5 2.5,2.8 8.8,8.8 3.4,2.6 6.1,-4.7 0.5,-2.5 -2.6,-5.3 1.1,-4.4 4.2,-5.7 4.2,3.2 4.1,-0.1 0.9,-2 2.4,-7.1 -10,-2.2 -2.9,-5.3 5.8,-2.6 z"><title>Beltinci</title></path>
<path id="bled" fill="#9aff00" d="m 246.8,240.1 -5.8,-10.4 2.2,-5 -2.4,-1.9 -7.6,3.4 0.3,5.2 -4.3,5.2 -2.1,5.2 -5.8,2.8 -13.3,-1.5 -7,2.1 -0.3,3.6 -3.1,1.3 4.8,9.1 1.9,-2.6 3.6,1.8 6.5,9.5 6.4,-0.2 9.4,-2.5 0.6,7.4 1.7,3.5 5.6,-5.3 0.9,-5.8 6.2,-3.4 -0.5,-5.8 4.3,-0.5 2.7,-4.3 -3.4,-8.9 z"><title>Bled</title></path>
<path id="bohinj" fill="#33ff00" d="m 151.9,236.4 -2.2,-0.7 -3.1,6.6 -12.4,4.1 -4.2,4.1 -6.7,2.2 -4.4,4.3 1.2,10.2 -6.7,6.9 2.4,2 1,5.1 4.4,4.9 1.8,4.4 3.8,0.1 13.2,9.8 2.1,1 h 6.8 l 7.1,4.3 6.5,1.7 h 5 l 3.8,-2.1 3.2,0.6 11.1,-1.2 3.8,-2.6 2.3,1.8 5.1,-1.8 3.8,0.1 1,-2.7 11,-4.4 8.5,4.2 7.7,3 4.1,-0.5 1.4,-19 3.5,-2.3 7.3,1 6.4,3 4.5,-2.1 4,-1.1 1.8,-7 -3.9,-4.5 -1.4,3.1 -8.6,1.1 -4.8,-0.8 -5,-2.4 -5.6,5.3 -1.7,-3.5 -0.6,-7.4 -9.4,2.5 -6.4,0.2 -6.5,-9.5 -3.6,-1.8 -1.9,2.6 -4.8,-9.1 -3,-0.6 -6.4,0.9 -3.7,-4.7 -4.4,-1 -8.1,-3.5 -12.3,4.1 z"><title>Bohinj</title></path>
<path id="borovnica" fill="#ffff00" d="m 338.8,473.2 -1.9,-3.1 -2.2,-8.1 4,-2 0.5,-10.3 -2.8,-3.6 -2,1.3 -4.4,-2.3 -7.4,-8.7 -1.6,-3.5 1.2,-3.5 -7.8,1.5 -3,8.4 4,15.5 3.2,4.5 0.9,4.6 4.3,6.6 h 0.1 l 6,8.1 2.8,1.1 3,-7.1 z"><title>Borovnica</title></path>
<path id="bovec" fill="#66ff00" d="m 100.2,207.9 -2.6,-1.4 -7,0.3 -1.7,-3.1 -10.7,3.3 h -6.1 l -6.2,6.8 -0.3,7.3 -3.9,5.3 -7.9,3.8 -4.5,0.9 -8.4,7.6 -5,0.7 -5.8,4.6 -6.3,-1 -3.6,1.8 2.2,9 1.6,2.4 -4.2,6.3 -3.6,-0.5 -3.3,3.7 -0.2,4.1 -3.9,2.7 3.4,5.8 5.7,1.1 12.1,4.7 7.6,0.6 9.2,3.6 3.3,-4.6 -0.4,-4.8 -2.6,-2.9 3.9,-4 3.3,-0.4 16.1,6 8.1,-3.2 1.7,-2.2 5.8,2.4 1.6,2.3 6,3.1 11.2,-5.9 3.9,1.2 4.7,-1.2 6.7,-6.9 -1.2,-10.2 4.4,-4.3 6.7,-2.2 4.2,-4.1 12.4,-4.1 3.1,-6.6 -4,-1.4 -3,-3 0.4,-3.2 -3,-7.7 -4.3,-1.4 -4.6,-4 -6.7,-0.8 -2.8,-1.7 -3.7,-5.4 -4.6,1.9 -2.7,2.8 -5.5,1.4 -6,3 -1.1,-1.7 z"><title>Bovec</title></path>
<path id="brda" fill="#9aff00" d="m 50.2,381.7 -5,2.6 -6,1.6 v 4.5 l 4.5,3.2 -0.8,4.1 -4.2,8.5 -5,1.7 -1,2.5 8.2,12 4,0.2 4.1,3.4 0.5,2.6 4.5,1 2,-2.4 6.4,0.7 3.2,-6.8 4.2,-3.2 9.9,2.5 2.3,-4.4 -2.5,-4.2 -3.8,-2.7 -3.2,-5.1 -3.8,-1 -2.5,-4.9 -2.9,-0.9 -2.1,-5.3 -0.7,-5.5 -6.5,-2.1 z"><title>Brda</title></path>
<path id="brezovica" fill="#33ff00" d="m 322.2,429.4 -1.2,3.5 1.6,3.5 7.4,8.7 4.4,2.3 2,-1.3 2.8,3.6 -0.5,10.3 -4,2 2.2,8.1 1.9,3.1 4,5.5 4.6,-0.9 4,-5.2 5.1,0.6 5.7,-5 -5.7,-4.1 -2.2,-4.9 0.2,-6.9 -1.5,-4.2 0.6,-8.1 -0.9,-4.9 -4.9,-9.8 -3.8,-0.8 -1.3,-5.1 7.8,-5 2.6,-5.2 -8.1,-2.2 -2.3,-6.8 -1.9,-2.3 -6.1,-1.7 -6.3,2.6 4,2.7 0.3,4.4 2.6,4 -7.1,-0.4 -3.2,1.2 -2,4.6 4.3,10.1 z"><title>Brezovica</title></path>
<path id="brezice" fill="#cdff00" d="m 702.2,486.9 0.5,-2.5 7.6,1.7 3.1,-4.2 2.9,2.5 9.1,3.2 1.1,2.2 6.8,2.6 2.9,4.7 3.7,-5.8 3.7,-4 3,0.3 11.3,-2.7 -5,-6.6 -4.3,-4.2 1,-11.9 -1.2,-4.3 8.5,-7.3 1.3,-20 -2.9,-12.7 -0.2,-4.6 4.8,-4.4 -3,-3 3.1,-1.9 0.3,-7.5 5.2,-4.1 -4.1,-4.7 -1.8,2.7 -4.6,-1 -2.2,2.5 -4.8,-1 -4.7,1.3 -4,6.7 -1.7,0.3 -10.3,7.9 -3.3,3.8 -3.9,1.1 -5.1,3.1 -1.1,-3.1 4.4,-3.8 2.5,-6.2 -1.5,-1.5 -8.2,2.5 -6.1,0.8 2.2,8.4 4.9,1 -4,5.9 1.3,4.8 -1.4,7 1.9,9.8 -2.6,7.8 -3.1,1.5 -0.3,6.3 -3.4,-1.2 -4,2.2 -8,0.3 -1.3,13.1 3,3.3 2.8,6.9 6.5,2.7 z"><title>Brežice</title></path>
<path id="tisina" fill="#ffdb00" d="m 887.2,89.1 -4.8,-1.1 -2.3,-3.6 -8.2,-1 -3.3,4.5 -3.4,0.2 1,2.2 -1.5,14.3 -0.7,2.3 13,9.7 8,7.3 2.4,-5.3 5.9,-7.7 0.6,-3.1 -6.9,-3.1 -1.4,-7.5 z"><title>Tišina</title></path>
<path id="celje" fill="#ffc900" d="m 604.2,263.5 -4.4,1.7 -2.2,12.7 1.2,2.8 -2.7,6.7 1.4,9.9 2,1.8 -0.6,5.2 -2.6,6.4 0.6,5.6 -0.8,4.3 3.6,4.1 8.2,-5.6 2.3,3.6 8,0.6 5,1.2 3.8,-1.2 -1.3,-4 -2.9,-3.3 1.4,-7.5 2.8,0.5 8.1,-4.7 0.6,1.6 -0.8,-5.9 6.7,-3.8 0.4,-5.3 -1,-1.6 -7.6,-3.7 -2.4,-2.8 -3.1,2.7 -6.4,-1.9 -3.8,-2.6 -1,-8.7 -2.2,-3.3 -5.1,-1.7 z"><title>Celje</title></path>
<path id="cerklje-na-gorenjskem" fill="#9aff00" d="m 382.8,299.6 2.8,-0.6 1.6,-5.7 -2,-8.3 -4.2,-0.9 1.1,-4.9 -4.9,-6.5 1.9,-4.6 -5.1,1.7 -0.2,2 -6.1,4.1 -3.2,0.9 -3.8,-1.7 -5.9,0.3 -0.7,2.4 -4.7,4.7 -2.9,4.9 -1,6.9 2,7.8 -0.9,7.7 3.3,1.2 0.3,4.5 3.7,1.9 11.5,1.9 4.4,-7.4 3.9,-0.4 3.8,-3.8 z"><title>Cerklje na Gorenjskem</title></path>
<path id="cerknica" fill="#66ff00" d="m 358.4,530.3 6.1,-3.6 -3.5,-4.8 -5.3,-1.2 -5.7,-4 -1.1,-5.4 -3.1,-1.8 3.3,-4.2 -0.3,-4.9 6,-5.4 4.9,-1.9 -0.2,-3.3 4.9,-0.6 2.6,-2.4 -3.3,-7 2.6,-4 -4.1,-7.6 v 0 l -5.7,5 -5.1,-0.6 -4,5.2 -4.6,0.9 -4,-5.5 -3.1,-0.6 -3,7.1 -2.8,-1.1 -6,-8.1 h -0.1 l -2.2,3.1 -3.1,-0.1 -0.4,-4.3 -4.4,0.4 -5.7,-6.5 h -4.1 l -3.4,3 -0.1,3.4 -7.1,15.1 0.2,6.2 -2.1,6.3 -2.4,3.3 0.3,3.6 -4.7,3.5 6.8,8.4 -1.1,1 8.3,9.2 10.1,0.6 1.4,6.6 5.2,2.2 8.3,9 5.3,4.2 4,3.2 13.2,-13.3 0.9,-2.6 z"><title>Cerknica</title></path>
<path id="cerkno" fill="#66ff00" d="m 226.7,339.9 v -4.3 l -11,-3 -5.1,1.4 -2.6,-1.7 -4.4,1.7 -3.9,-2 -1.6,-4.7 0.8,-4.5 -4.5,7.5 -6.3,-0.5 -11.5,2.8 -1.7,3.7 -7.8,6.6 0.9,6.2 -2.8,3.5 6.2,8.3 -0.6,10.7 1.8,5.2 -3.3,5.6 3.6,2.8 6.6,1 2.7,-3.4 7.2,-5.8 0.8,-3 4.8,1.7 11.1,8.8 6.6,-4.9 -0.4,-0.3 -3.4,-5.4 -0.3,-2.7 3.7,-7.9 4.8,-3.4 0.1,-3.4 3.8,-6.2 0.1,-2.5 4.2,-4.5 z"><title>Cerkno</title></path>
<path id="crensovci" fill="#ffc900" d="m 948.3,131.4 -0.9,2 -0.9,4.6 -3,4.8 -3.3,-1 -3.8,3.9 -0.5,2.5 -6.1,4.7 9.5,7.1 0.8,2.6 h 4.4 l 5.6,4.4 4.2,-0.2 9.1,-3.1 0.8,-4.7 -2.3,-0.8 h -3.3 l -2.6,-2.9 0.9,-3.8 3.2,-2.9 -2.5,-5.1 v -5.6 l -3.4,-0.2 z"><title>Črenšovci</title></path>
<path id="crna-na-koroskem" fill="#9aff00" d="m 494.7,178.2 -0.2,2 -6.5,2.8 -2.8,-3.6 -5.4,-0.7 -0.8,1.9 -5.3,-2 -1.8,-5.9 -3.3,1.2 -4,0.8 -7,3.9 -2.5,-2.4 h -5.5 l -3.8,3.3 -3.5,-2.4 -2.2,4.4 -5.1,-3.1 -2,9.1 -3.7,2.9 1.6,3.5 -8.5,3 -0.4,4.8 4.8,1.2 10.2,-0.8 3.6,2.2 4,5.3 2.7,6.8 3.6,-2 3.1,-3.9 4.2,1.2 4.5,3 3.5,0.6 8.1,-0.9 3.2,2.8 7.9,-1.4 3.7,0.3 h 4.5 l 5.3,-6 8,0.1 3,-4 5.3,-1.4 -2.4,-5.5 1.2,-5.8 2,-1.3 0.4,-6.7 -8.1,0.4 -0.8,-7.3 -5.6,-0.2 z"><title>Črna na Koroškem</title></path>
<path id="crnomelj" fill="#ffa500" d="m 546.2,649.5 9.3,4.3 -0.6,6.4 5.8,2.7 7,7.6 5.1,1.3 2.3,5.7 6.3,4.5 5.1,-0.4 2.8,-2.7 6.1,1.7 4.9,-0.4 1.7,-5.3 4.7,-7.2 10.6,-6 6.9,3.2 7.4,1.5 2.8,1.5 5.6,-1.9 3.7,-8.5 8.8,-6.8 -6.7,-2.2 -3,-3.1 -6.7,-3.8 -2.5,-4.8 -3,-1 -0.9,-4.1 -4.4,-3.1 -1.1,-22.4 -1.1,2.1 -5.6,4.4 -2.6,-5.7 -4.1,1.6 -4,-2.5 -4.1,-5.2 -8.1,-3.3 1.4,-4.6 -1.2,-1.2 -11.5,-3.4 -1.7,-2.1 -3.9,0.5 -5.1,3.5 -3.5,8.5 -8.5,1.1 -2,1.1 -10.5,-4.4 2.2,2.5 -1.7,4.7 2.9,3.4 -1.6,3.3 0.6,6.2 7.6,2.5 -1.4,4.7 -6.8,0.1 -4.7,7 1.6,6.3 4.5,-0.4 5.4,-4 4,-0.9 2.5,3 -1.4,5 -4.4,-0.5 -4.7,2.2 -4.6,3.7 z"><title>Črnomelj</title></path>
<path id="destrnik" fill="#ffdb00" d="m 826.7,175.3 -5.3,2 -8.7,-2.6 -0.5,3.4 -6,-0.1 -3.5,-3.1 -4.4,1.7 -5.4,4.2 1.7,3.3 6.2,2.1 2.4,6.6 7.5,8 8,-1.2 4.9,-8.1 8.6,-3.9 0.6,-4.6 -4.3,-2.5 z"><title>Destrnik</title></path>
<path id="divaca" fill="#ffed00" d="m 235.1,545.6 -1.8,-6.1 -5.7,-9 -8.8,-1.7 -2.2,-4.2 -7.7,-5.4 -7.4,3.1 0.1,5 -3.4,3.6 -8.4,4.4 4.6,3.5 -3,5.6 5.9,5.5 -3.8,2 -4.5,6.4 -2.2,4.7 2.6,3.8 -0.1,4.9 -3.7,7.6 v 3.3 l 8.3,-0.9 3.6,1 6.5,5.7 2.3,3.4 4.5,1.5 3.1,-1.1 9,2.2 -0.9,4.2 2.9,0.9 4.2,-2.1 0.7,-3.5 4.6,-1.7 v -4.3 l -4.6,-2.9 1.3,-7.6 -4.4,-4.9 2,-8.3 -0.5,-2.8 -3.8,-1.1 2.3,-6.9 -0.1,-4 z"><title>Divača</title></path>
<path id="dobrepolje" fill="#ffed00" d="m 446.8,467.1 -6.2,4.6 -3,0.6 -6.9,-4.8 -4.1,0.6 -5.3,-5 -3.3,0.4 -0.1,4.3 -2.9,3.5 -4.3,0.3 0.4,7 -2.2,1.6 0.2,3.9 3.6,-1.1 7.9,5.2 6,7.7 -0.3,1.8 5.7,5.3 0.9,2.5 7.9,6.4 3.2,1.7 1.6,4.3 6.2,7.4 8.2,7.2 8.8,6.8 1.6,1.5 5.9,-7.4 -3.6,-3.1 -1.5,-3.4 -5.6,-2.1 -2.7,-7.3 -0.4,-5.6 1.7,-4.6 -0.9,-1.8 -6.9,-2.3 1.2,-4.2 -4.7,-4 -2.5,-4.5 -2.7,1.6 -0.2,-10.6 5.2,-4.7 -0.1,-3.5 -2.8,-4.5 z"><title>Dobrepolje</title></path>
<path id="dobrova-polhov-gradec" fill="#9aff00" d="m 308.8,368.1 -4.9,-2.7 -3.7,0.5 -12,-3.2 -2.7,0.7 -1.6,3.9 -7.9,0.7 -3.5,3.8 -2.4,5.8 1.3,6.7 -2.4,3.1 -1.4,5.6 -3.1,2.6 0.4,6.1 3,-0.5 4.6,2 9,-0.8 -1.8,-3.1 4.7,-4.3 8.6,-4.1 9.7,3.2 5.4,-1.7 4.1,3.8 1.1,5.6 -1.1,6.1 7.3,-1.9 -0.6,-3.9 4.2,-3.2 5.3,-0.1 6.3,-2.6 6.1,1.7 1.9,2.3 3.8,-3.3 -2.8,-2.9 2.3,-5.6 -2.3,-4.8 -3.7,-3.7 0.6,-4.2 -5.1,-0.6 -2.9,1 -8.1,-5.9 -4,1.4 -1.9,5.4 -3.2,-3.9 -4.3,0.8 z"><title>Dobrova - Polhov Gradec</title></path>
<path id="dol-pri-ljubljani" fill="#9aff00" d="m 425.8,358.6 -5.1,-1.7 -4.7,2.2 -1.3,5.2 -4.4,1.1 -6.1,4 -8.7,-1 1.9,5 9.2,4.9 7.1,-2.1 9,-0.3 4.9,2.7 6.3,-1.8 1.5,-3 10.1,-1.9 1.5,-4.5 -5.4,0.7 -2.6,-2.1 -1,-4.4 -3.8,-1.1 -4.9,1.5 z"><title>Dol pri Ljubljani</title></path>
<path id="domzale" fill="#ffed00" d="m 424.5,320.7 -4.6,-3.3 -10,1.9 -4.5,5.2 -6.5,3.3 -2.2,-2.2 -0.4,0.1 -2.1,-0.3 -2.1,6 3.1,9.6 -3.1,4.1 -4.2,3.8 -0.8,7.5 0.7,5.5 7.6,3.1 0.1,3.4 8.7,1 6.1,-4 4.4,-1.1 1.3,-5.2 4.7,-2.2 5.1,1.7 1.7,-3.2 -1.8,-9.1 -8.8,-6.4 -4.1,-3.9 5.7,-6.1 2.5,-6.5 z"><title>Domžale</title></path>
<path id="dornava" fill="#ffc900" d="m 856.7,182.6 -4.5,7.4 -2.3,6.3 -3.1,1.7 -4.7,6.6 -2.9,0.9 -1.9,-4.1 -3.1,-0.4 0.4,2.1 -3.2,10.1 1.7,2.5 10.7,1.5 2.9,-4.3 7,-5.4 4.1,2.5 4.4,-6.2 0.9,-5.9 0.1,-7.8 z"><title>Dornava</title></path>
<path id="dravograd" fill="#cdff00" d="m 554.4,109.8 -5.7,-3.3 -7.9,0.2 -7.9,5.1 -6.9,9.2 0.2,3.1 -5.2,6.3 -1.6,-3 -1.5,-8.1 -4.7,-3.6 -11,11.7 7.2,8 2.1,-1.7 3.9,2.6 1.9,4.6 7.4,3.9 4.1,3.9 2.6,-0.7 1,5.7 -1.7,3.6 5.6,6.4 1.5,-3.6 h 3.6 l 3.6,-6.7 4.9,-3.1 1.7,0.7 6.7,-3.1 3.1,-0.1 1.4,-0.8 -1.3,-8.1 2,-4.9 5.6,-0.4 -6.2,-5.5 -3.9,-5.5 -1.9,-11.3 z"><title>Dravograd</title></path>
<path id="duplek" fill="#ffdb00" d="m 791.2,179.9 -2.9,-2.5 0.3,-3 4.5,-1.5 -1.1,-3.7 -3.3,-3.5 -6.1,-2.9 0.4,-3.7 -5,-4 -2.1,2.3 -4.6,-1.2 -4.1,4.9 -1.4,3.5 -6.7,0.7 1.6,8.6 3.9,3.1 7.6,9.2 3.7,1.4 3.5,5.5 0.8,-2.9 7.4,-5.9 3.2,-0.3 z"><title>Duplek</title></path>
<path id="gorenja-vas-poljane" fill="#33ff00" d="m 226.7,339.9 -1.4,3.4 -4.2,4.5 -0.1,2.5 -3.8,6.2 -0.1,3.4 -4.8,3.4 -3.7,7.9 0.3,2.7 3.4,5.4 1.7,-4.8 4.5,-1 4.5,0.9 7.6,4 5.4,-0.3 2.5,1.3 5.3,-1.1 5.8,3 1.5,4.2 5.5,4.7 2.4,4.2 4.2,1.5 1.3,-0.3 3.1,-2.6 1.4,-5.6 2.4,-3.1 -1.3,-6.7 2.4,-5.8 3.5,-3.8 -1.7,-4.3 -7.5,-5.5 3.5,-5.2 -2.5,-8 4.5,-4.2 4.4,-7.5 -7.9,-4.8 -3.2,2 -3,-1.1 -7.3,0.9 -2.9,1.1 -5.1,-1.3 -2.1,1.8 -4.7,0.3 -8.5,3.2 -1.7,4.7 z m -6.2,44.4 -0.4,-4.1 -2.7,-2 -4.7,1.4 z"><title>Gorenja vas - Poljane</title></path>
<path id="gorisnica" fill="#66ff00" d="m 857.8,210 -4.1,-2.5 -7,5.4 -2.9,4.3 3,9.7 -0.4,3.7 3.6,9.1 4.2,-4 5.4,-1.3 6.9,-5.5 4.1,1.3 0.6,-1.7 -3.3,-5.2 -1.5,-4.4 0.1,-6.9 -7.1,0.1 z"><title>Gorišnica</title></path>
<path id="gornja-radgona" fill="#ffb700" d="m 863.2,103.8 -6.9,-3 -4.9,-8.1 -4.7,-1.7 -7.3,-1 -5,4.3 -3.1,4.5 -4,1.7 -8.7,1.3 -1.6,-1.1 0.4,3.4 -2.2,5.7 2.4,1.7 13.4,2.7 -4,4.4 -5.3,2.3 2,2.8 -0.1,3.8 3.8,5.4 6.9,3.5 7.1,0.3 2.5,1.3 2.1,-1.3 5.8,0.2 3.7,-2.7 1.9,-5.8 -0.8,-3.8 -5.7,-1.7 1.1,-9 3.9,-1.2 1,-4 z"><title>Gornja Radgona</title></path>
<path id="gornji-grad" fill="#cdff00" d="m 484.1,266.9 -5.7,1.3 -3.1,-0.7 -3.8,-6.7 H 466 l -4.7,-6 -5.2,1.2 -3.1,1.6 -4,6.9 -11,4.4 -0.3,3.1 -4.2,1.8 -1.9,5.9 0.2,3.3 -3.1,5.1 2.9,4.3 8.3,0.1 8.5,3.3 11.3,-0.8 4.4,-1.5 16.1,2.3 -0.3,-5.3 3,-8.9 3.8,-3.3 0.7,-4.5 -3.1,-4.2 z"><title>Gornji Grad</title></path>
<path id="gornji-petrovci" fill="#9aff00" d="m 909.3,9.3 -3.2,-1.4 -3,3 -7,-1.2 0.9,5 -4.1,6.5 1.7,1.7 3.1,1.1 4,0.4 5.3,6 1.1,4.4 5.1,6 4.2,-0.5 4.2,8.2 -4.9,2.9 -4.2,6.4 2.6,0.6 5.5,5 4.3,1 3,-4.8 -0.9,-2.5 4.1,-1.7 0.4,-3.6 4.6,-4.2 4.4,-11 -0.9,-3.6 -3.6,-4.5 -0.2,-2.9 -7.4,-2 -2.7,-3.6 z"><title>Gornji Petrovci</title></path>
<path id="grosuplje" fill="#ffed00" d="m 402.4,414.9 -2.9,3 -6.8,2.8 1.8,3.9 1.4,17 -1.7,5 2.4,7.2 1.8,2.1 8.3,7.3 1.4,7.4 2.6,1 4.3,-0.3 2.9,-3.5 0.1,-4.3 3.3,-0.4 5.3,5 4.1,-0.6 6.9,4.8 3,-0.6 6.2,-4.6 -2.6,-5.5 0.2,-8.3 -2.4,-5 -0.6,-4.8 -4.7,-8.2 -3.3,0.6 -1.7,-2.9 2.4,-4.9 4.5,-3.9 v -3.9 l 4.8,-5.9 -6.9,-1.9 -0.4,-2.3 -4.5,-4.2 -3.6,3.4 -2.5,-1.3 -3.7,3 2.5,3.5 -4.2,1.6 -1,2.9 -9,-1.4 -4.5,1.4 z"><title>Grosuplje</title></path>
<path id="salovci" fill="#ffb700" d="m 949,4.8 -2,-2.9 -8.1,0.5 -10.8,-2.4 -5.7,3.9 -4,-0.4 -6.5,2.2 -2.6,3.6 16.4,10.7 2.7,3.6 7.4,2 0.2,2.9 3.6,4.5 0.9,3.6 -4.4,11 4.9,2.3 6.8,-0.3 5.9,-2.8 0.3,-9.3 -5.2,-0.9 -0.1,-3.3 3,-2.6 1.8,-6.2 -4.8,-7.4 2.4,-1.4 -4.1,-7.2 z"><title>Šalovci</title></path>
<path id="hrastnik" fill="#cdff00" d="m 563.8,328.1 -1.5,-0.9 0.8,2.9 -8.7,2.5 -1.4,3.5 1.5,3.6 -4.2,2.4 -3.9,4.2 1.4,6.5 4.4,7.3 6,2.1 0.6,4.8 1.9,2.3 6.9,3.6 h 5.6 l 4.7,-3.4 -6.9,-5.3 3.8,-2 7.9,2.8 3.7,-6 -0.3,-4 -3.6,-6.3 -4.3,-2.5 0.3,-3.6 -3.5,-4 -6.3,0.7 1.1,-4.1 z"><title>Hrastnik</title></path>
<path id="hrpelje-kozina" fill="#ffed00" d="m 185.6,579.3 -5.5,1 -3.5,-1.4 -6.8,0.6 6.7,4.5 -3.9,4 -9.8,6.5 0.5,4.6 4.1,14 3.2,3.6 3.4,-0.2 4,7.3 12.5,-2.9 5.9,11 5.4,4.8 1.6,-0.1 3,0.1 4.9,4 5.5,6.1 2,-0.2 7.8,6.5 5.9,1.3 8.7,0.3 4.2,-4.4 -2.6,-7.4 -4.2,-1.1 -1.7,-3.6 -3.5,-0.7 3.1,-9.1 -0.5,-4.6 3.5,-3.5 0.1,-4.6 -6.2,-2.9 -0.7,-4 1.5,-6.2 3.6,-2.4 0.4,-4.5 -3.8,-3.5 -4.6,1.7 -0.7,3.5 -4.2,2.1 -2.9,-0.9 0.9,-4.2 -9,-2.2 -3.1,1.1 -4.5,-1.5 -2.3,-3.4 -6.5,-5.7 -3.6,-1 -8.3,0.9 z"><title>Hrpelje - Kozina</title></path>
<path id="idrija" fill="#66ff00" d="m 155.8,412.9 4.3,3.1 0.3,5.5 3.3,3 6.1,3 3.7,-0.4 1.1,3.8 7.3,8.8 3.5,1.3 2.8,4.3 2.9,-1.4 11.5,7.8 -0.2,2.1 5.7,1.6 5.9,3 0.9,3.6 4.5,5.3 4.5,-0.6 3.1,-2.2 3.6,2.7 12.5,2.7 -1.1,-8.2 -6.4,-6.6 0.3,-5.4 -1.3,-4 4.1,-3.6 0.4,-4.2 2.7,-2 -0.1,-3.5 -3.1,-3 -0.8,-3.4 1.9,-3.3 3.9,0.3 6.2,-11.2 -1.5,-0.8 -7.2,-1.2 -5,-6.6 0.7,-2.6 -2.2,-4.3 -2.8,1.6 -2.7,-3 -1.8,-5.6 -3.1,-1 -3.7,-4 -7.8,-4.7 -6.6,4.9 -11.1,-8.8 -4.8,-1.7 -0.8,3 -7.2,5.8 -2.7,3.4 -6.6,-1 -3.6,-2.8 -2.9,-1.1 -1,5.1 -6.7,-3.9 0.1,7.2 3.3,0.1 0.7,5.5 -2.6,6.2 -0.1,9.4 z"><title>Idrija</title></path>
<path id="ig" fill="#9aff00" d="m 362.2,468.2 4.8,-3 6.9,3.6 3,0.5 1.5,3.1 3.8,0.8 4.5,3.2 5.8,-3.4 2.2,-8 -1.8,-3.8 -5.5,-2.4 -1.6,-2.6 0.9,-4.9 -4.8,0.4 -0.4,-4.5 3.3,-2.6 v -11.4 l -2.8,-4 2.3,-2.8 -3.1,-5.6 -5.2,-3.1 -6.7,-3 -1.1,-2.9 -12,3.8 2.1,7.7 -6.5,-0.1 -4,2.1 4.9,9.8 0.9,4.9 -0.6,8.1 1.5,4.2 -0.2,6.9 2.2,4.9 z"><title>Ig</title></path>
<path id="ilirska-bistrica" fill="#cdff00" d="m 241.2,654.7 5.1,2.6 h 3.2 l 3.5,-2.6 6.7,0.9 10.6,4.6 -0.4,-6 5.3,-8.9 7.1,-1.8 7.4,10.7 2.4,-2.9 3.7,-0.9 1.5,2.6 5,2.1 3.3,-1.3 1.1,4.6 2.7,0.4 7.2,-6.2 4.1,0.9 10.1,-4.6 1.9,-3.1 5.1,-4.4 6.5,0.3 1.9,-3.4 4.5,-1.6 6.7,-6.5 4.2,-1.4 3.7,-5.7 -1.1,-7 1.7,-7.1 -3.2,-2.2 -3.5,1 -5.2,-0.7 -5.2,1 0.4,-7.8 -3.2,-5.6 -5.1,-0.9 -2.2,-2.4 4.3,-11.2 -0.9,-2 -8.3,1.3 -2.3,-1.5 -5.5,0.8 -0.4,-6 -4.5,-7.1 -4.9,-5.7 -7.3,3.1 4.3,7.2 -20.7,4 -5.7,3.3 -6.2,2.3 -2.6,4.4 -4,2.8 -17.8,2.2 -8.4,-5.7 -6.3,0.2 -1.9,4.9 -3.6,1.2 -1.6,-2 v 4.3 l 3.8,3.5 -0.4,4.5 -3.6,2.4 -1.5,6.2 0.7,4 6.2,2.9 -0.1,4.6 -3.5,3.5 0.5,4.6 -3.1,9.1 3.5,0.7 1.7,3.6 4.2,1.1 2.6,7.4 z"><title>Ilirska Bistrica</title></path>
<path id="ivancna-gorica" fill="#cdff00" d="m 446.8,467.1 3,1.7 2.8,4.5 0.1,3.5 -5.2,4.7 0.2,10.6 2.7,-1.6 2.5,4.5 4.7,4 -1.2,4.2 6.9,2.3 0.9,1.8 4.5,-1.4 5.2,2.7 5.5,-0.1 2.4,-3 -0.8,-4 0.5,-11.2 -2.5,-0.6 -2.3,-9.3 3.9,-0.6 8.2,0.7 0.6,-4.5 -2.1,-2.1 -4.5,-7.6 6.7,-10.1 -1.9,-8.7 2.9,-3.9 -0.8,-5.2 5,-1 3.9,-2.3 4.6,-4.6 -4.3,-0.7 -8.8,-13.2 -2.4,-6.7 -4.9,0.4 0.1,4 -4,1.3 -4.3,-2.1 -2.4,0.8 -6.6,-2.8 -4.3,-4.4 -5.7,2.5 -2.5,3.6 -3.7,0.9 -3.6,-1.9 -2.4,2.2 -4.8,5.9 v 3.9 l -4.5,3.9 -2.4,4.9 1.7,2.9 3.3,-0.6 4.7,8.2 0.6,4.8 2.4,5 -0.2,8.3 z"><title>Ivančna Gorica</title></path>
<path id="izola" fill="#ffff00" d="m 103.2,623.8 -9.5,2.9 -3.6,3.9 -6.7,0.1 -5.4,-3.3 1.7,3.9 -0.5,4.2 3.4,5.9 0.6,7 7.3,7.2 0.7,3 5.1,-1.5 1.2,-8.7 2.1,-5.5 3.1,-3.9 -0.8,-4.2 1.5,-4.2 -1.2,-4.8 z"><title>Izola/Isola</title></path>
<path id="jesenice" fill="#ffdb00" d="m 252.5,208.1 -4.9,-5.5 -0.7,-4.3 -4.7,-8.9 -5.5,-1.5 -3.8,-2.7 -7.4,-0.9 -6.3,-2.7 -3.2,0.1 -7,5.4 h -4.1 l 1.3,4.6 v 6.9 l -1.9,2.5 -4.2,0.5 -1.5,4.8 18.8,8.7 7.8,2.9 8,8.2 7.6,-3.4 2.4,1.9 0.7,-3.3 -2.1,-4.9 1.3,-3 6.9,-6.3 z"><title>Jesenice</title></path>
<path id="jursinci" fill="#ffc900" d="m 853.1,167.1 -8,1.1 -1.7,2.8 -7.7,2.8 -2.9,3.5 v 5.7 l -0.6,4.6 -0.9,8.7 2.9,4.7 3.1,0.4 1.9,4.1 2.9,-0.9 4.7,-6.6 3.1,-1.7 2.3,-6.3 4.5,-7.4 0.8,-3.1 -1.4,-5.9 0.9,-1.3 -3.9,-3 z"><title>Juršinci</title></path>
<path id="kamnik" fill="#ffff00" d="m 386.3,240.7 -1.1,1.9 -7.1,0.5 -1.4,2.5 4.7,5.2 -3.8,8.2 5.4,4.6 -3.9,4.5 -1.9,4.6 4.9,6.5 -1.1,4.9 4.2,0.9 2,8.3 -1.6,5.7 -2.8,0.6 2.4,8.9 2,0.7 -0.2,6.4 5,5.9 2.2,3.9 2.1,0.3 0.4,-0.1 2.2,2.2 6.5,-3.3 4.5,-5.2 10,-1.9 4.6,3.3 7.4,0.3 2.6,-3 7.7,0.2 5,5.8 3.9,-2.7 8.1,-0.2 8.1,-2 10.8,1.6 3.2,-2.7 4.4,0.2 6.5,-2.6 2.4,1.4 3.3,-1 1.1,-5.6 -2.4,-5.5 -6.1,-1.1 -0.7,-2 -7.2,-3.4 -2.4,-2.6 -16.1,-2.3 -4.4,1.5 -11.3,0.8 -8.5,-3.3 -8.3,-0.1 -2.9,-4.3 3.1,-5.1 -0.2,-3.3 -7.1,1.5 -2.8,-1 1.1,-4.7 -1,-7.8 -5.2,-1.8 -6.6,-7.7 v -15.9 l -7.6,3.1 -6.2,-1 -2.5,2.3 z"><title>Kamnik</title></path>
<path id="kanal" fill="#ffff00" d="m 128.3,367.2 -2.3,-0.5 -2.3,-4 -4.7,-0.7 -9.7,-7.9 -3.2,0.4 -3.3,-5.5 -2.1,-7.8 -3.9,-8.1 -3.2,0.3 -3.3,4.2 0.6,2.8 -3.6,8.3 -3.2,1.3 -3.5,5.2 -7.3,5.3 -1.5,3.7 -4.9,3.1 -4.9,5 -5.5,2.5 -5.1,4.4 -1.2,2.5 3.8,2.6 6.5,2.1 0.7,5.5 2.1,5.3 2.9,0.9 2.5,4.9 3.8,1 3.2,5.1 2.9,-0.4 6.5,6 5.4,-1.5 -5.9,-6.8 2.1,-9.1 6.1,-10.2 4,-2.3 1,-3.1 3.7,-2.8 6.5,0.6 4.9,6.2 4.8,3 5.5,-3.3 5.6,-11.7 z"><title>Kanal ob Soči</title></path>
<path id="kidricevo" fill="#ffc900" d="m 785.4,210.3 -4.7,-3.1 -3.8,5.2 -10,-3.2 -3,2.6 -3.6,3.1 -11.6,6.5 -5.2,2.7 2.4,4.1 4.1,1.9 -2.3,4.9 -4.1,2.6 2.6,2.3 11.8,1.7 3.5,-1 8.6,1.3 4.8,-1.2 7.9,2.6 2.4,2.4 6.2,-0.3 0.8,-5.8 -0.3,-8.2 3.1,-4.1 -2.5,-5 -2.8,-0.7 -0.1,-5 -2.3,-0.6 z"><title>Kidričevo</title></path>
<path id="kobarid" fill="#66ff00" d="m 113.4,274.1 -4.7,1.2 -3.9,-1.2 -11.2,5.9 -6,-3.1 -1.6,-2.3 -5.8,-2.4 -1.7,2.2 -8.1,3.2 -16.1,-6 -3.3,0.4 -3.9,4 2.6,2.9 0.4,4.8 -3.3,4.6 -9.2,-3.6 -7.6,-0.6 -12.1,-4.7 -5.7,-1.1 -3.4,-5.8 -8.8,0.9 3.6,3.6 1.9,3.9 0.4,7.7 3.9,10.4 5,4.1 0.3,1.9 -4.3,7.2 4.4,3.3 7.7,-1.9 -0.7,-6 9.4,0.1 8.2,1.9 1.3,2.6 8.8,1.6 h 5.3 l 5.3,3.8 1.1,8.1 4.1,0.7 3.9,-1.6 7.4,-0.2 0.6,2.3 5.4,-1.6 0.8,-2 -4.8,-2 3.4,-11.7 4.4,1.1 5.7,-5.2 3.3,-0.5 5.2,1.9 2.5,-1.8 -1.6,-5 -2.2,-2.2 1.4,-6.2 4.1,-6.1 5.8,-4.6 5.8,0.2 -1,-5.1 z"><title>Kobarid</title></path>
<path id="kobilje" fill="#7E7E7E" d="m 980.2,101.9 8.5,1.6 1.8,-6.3 -1.5,-1 1.2,-10.5 -13.9,-0.9 -4.2,-3 -3.5,5 -1.6,5.3 1.4,3.4 7.9,6.3 z"><title>Kobilje</title></path>
<path id="kocevje" fill="#9c0000" d="m 437.5,599.2 1.5,11.3 2.7,2.1 -3.4,5.6 10,5.3 10.5,9.4 2.4,3.1 3.6,3.3 2.1,5.6 6.3,-1.7 3.2,-8.7 -0.8,-4.7 6.8,-2.3 5.8,5.2 6.1,1.7 4.8,-0.5 0.9,-2.3 6.8,-1.4 8.4,7.7 0.1,2.9 1.7,0.4 4.4,5.4 2.5,1.1 8.2,-0.3 4.2,5.2 9.9,-3.1 1.9,-4.1 4.6,-3.7 4.7,-2.2 4.4,0.5 1.4,-5 -2.5,-3 -4,0.9 -5.4,4 -4.5,0.4 -1.6,-6.3 4.7,-7 6.8,-0.1 1.4,-4.7 -7.6,-2.5 -0.6,-6.2 1.6,-3.3 -2.9,-3.4 1.7,-4.7 -2.2,-2.5 -5.6,-2.6 -4.3,-9.2 -1.8,-1.8 -3,-2.5 -2.1,-7.9 0.3,-9.5 -7.7,-4.6 -2.6,-4.8 -5,-3.1 -0.5,-8 0.6,-4.3 3,-1.3 2.6,-7.7 -1.2,-7.2 -11.2,-1.8 -4.3,-2.5 -5.5,2 -2.8,5.3 -0.5,3.5 -3.3,4.4 -11,-7.4 -5.6,1.4 -5.4,-0.1 1.5,3.4 3.6,3.1 -5.9,7.4 -1.6,-1.5 -3.9,5.4 -0.1,3 -11.1,12.3 2.6,8 2,2.3 -3.6,6.3 0.8,4.5 -2.3,1.6 -7.5,-1.1 -5.7,-5 -1.2,5.6 -9.7,0.9 5.4,5.6 z"><title>Kočevje</title></path>
<path id="komen" fill="#66ff00" d="m 110.5,477 1.1,3.8 -1.4,5.1 -4.9,4.3 -3.4,0.1 -2.3,8.7 -8.3,0.2 -4.6,-1.9 -14.7,0.2 -0.4,5.3 10,4.9 9.9,-1.3 3.9,0.3 12.6,11.5 5.4,-2.6 4.6,0.6 1.9,-3.7 6.2,0.9 7.1,-1.8 4.4,-2.3 11.4,-0.1 9,-3.5 3.7,-3.6 1.9,1.9 5.3,0.5 4,-3.2 -3,-2.7 -2.2,-5.5 -11.2,1.5 -3.4,-1.1 -2.2,-3.4 -6.7,-4.2 -3.6,4.2 -6.1,0.7 -5.9,-3.4 -3.1,-4.2 -6,-3.6 z"><title>Komen</title></path>
<path id="koper" fill="#ffdb00" d="m 103.2,623.8 -1,2 1.2,4.8 -1.5,4.2 0.8,4.2 -3.1,3.9 -2.1,5.5 11.5,1.6 0.4,2.4 -8.7,10.3 -0.5,6 -4.5,2.5 3.8,0.6 4.8,-4.3 3.7,0.5 11.1,-4.3 5.3,-0.2 9,-2 3.5,1.6 3.5,3.4 -1.5,4.7 3.1,1.7 0.7,3.5 6.6,-0.3 5,1 2.5,2.8 9.4,0.3 3.3,-7.6 5.7,-5.1 13.7,-1 4.4,3.7 4.6,-3.9 v -5.8 l 3.9,-1.6 -1.5,-5 -4.9,-5 -3.7,-1.1 -1.2,-4.6 5.1,-4.1 2.7,2.3 4.8,0.5 0.3,-5.3 -1.6,0.1 -5.4,-4.8 -5.9,-11 -12.5,2.9 -4,-7.3 -3.4,0.2 -3.2,-3.6 -4.1,-14 -0.5,-4.6 -2.5,0.7 -1.2,6 -3.6,1.7 -1,3.8 -4,1.1 -8.4,0.6 -10.4,-1.4 -11.1,-6.5 -3.7,0.8 -1.3,3.8 11.2,5.8 1.4,5.4 -4.1,3.1 -5.4,-0.4 -3,0.3 -4.4,7 -2.3,-1.9 z"><title>Koper/Capodistria</title></path>
<path id="kozje" fill="#cdff00" d="m 721.8,381 -3.6,1.5 -3,-9.2 6.7,-5.4 -3.3,-5.9 -4.1,-1.7 -4.2,0.4 -5.3,-7.3 -5.4,1 -1.4,-3.7 -5.1,1 -3,9.7 -4,1.6 -2.8,-3.8 -3,-0.1 -2.7,4.7 -0.5,3.8 3.6,5.8 3.9,3 -1.4,3.9 7.5,5.7 3.3,-3.2 3.5,1.5 2.4,6.1 3.3,0.3 2,10.5 -0.2,2.6 6.1,-0.8 8.2,-2.5 1.5,1.5 -2.5,6.2 -4.4,3.8 1.1,3.1 5.1,-3.1 3.9,-1.1 3.3,-3.8 10.3,-7.9 1.7,-0.3 -1.7,-5 -3.4,2.8 -4.4,0.4 -5.6,-2.6 -1.6,-3.8 z"><title>Kozje</title></path>
<path id="kranj" fill="#cdff00" d="m 283.2,300.1 6.9,1.3 4.2,3.7 -1.1,3.6 -4.3,2.2 4,5.7 3.9,-2.9 2.6,5.5 8.9,0.3 4.8,5.6 5.1,-0.6 3.8,3.4 4.1,-0.6 5.1,12 8.7,-4.7 -2.4,-2.2 -3.1,-8.2 0.5,-2.8 -3.1,-2.8 -1.8,-4.5 3.3,-2.5 1.5,-4.5 -3,-2.5 0.6,-6.3 2.1,-2.9 -1.1,-8.6 4.3,-7.8 -4.6,-2.2 -7.3,2.9 -3.6,-3 0.9,-4.2 h 4.9 l 1.9,-7.8 -0.1,-3.4 4.4,-12.3 -6.3,1.4 -10.2,-1.3 -2.5,4.9 -4.9,2.3 -1.4,2.3 -0.2,5.8 -2,2.9 1.5,3.3 -5.8,3.6 7.3,9.3 2.9,-0.3 -3.1,10.2 -2.8,1.2 -2.7,-4.8 -12.6,-4.5 -2.2,1 -6.1,-0.7 -3.1,1.3 -9.9,-4.4 -3.8,1.5 -6.3,-2.7 -4,1.1 8,4.5 2.7,7.4 2.9,3 9.6,0.4 z"><title>Kranj</title></path>
<path id="kranjska-gora" fill="#66ff00" d="m 204.9,187.1 -5.7,-5.4 -6.2,-1.8 -8.8,-7 -4.8,-1.1 -5.2,-3.4 -5.3,0.8 -4.4,-1.5 -7.8,4 -9.1,-1.9 -4.9,5.1 -6.7,1 -4.6,-3.2 -8.4,-2.9 -5.5,0.5 -3.7,-2.3 -3.8,-0.3 0.6,7.8 -3.9,2.1 -0.1,8.2 2,1.6 -5.3,6.1 1.7,5.3 -1.7,6 -3.1,3.1 -2.1,6.6 1.1,1.7 6,-3 5.5,-1.4 2.7,-2.8 4.6,-1.9 3.7,5.4 2.8,1.7 6.7,0.8 4.6,4 4.3,1.4 3,7.7 -0.4,3.2 3,3 4,1.4 2.2,0.7 12,-7.1 4.1,-1.7 4.6,-3.8 6.2,-1.2 4.5,-9.5 5.6,-1.7 4.2,0.1 v -4.3 l 5.5,-0.8 1.5,-4.8 4.2,-0.5 1.9,-2.5 v -6.9 z"><title>Kranjska Gora</title></path>
<path id="krsko" fill="#ffdb00" d="m 641.7,442.3 -3,4.1 0.8,13.3 -3.4,4 4.8,2.3 5.2,-1.5 4.6,2.7 6.9,-1.6 v -1.7 l 9.6,0.4 -0.5,11.6 3.7,1.4 v 2.7 l 4.8,3 2,6 5.9,4.7 4.5,-2.1 9,5.2 5.1,-4 0.5,-5.9 -2.7,-3.3 -6.5,-2.7 -2.8,-6.9 -3,-3.3 1.3,-13.1 8,-0.3 4,-2.2 3.4,1.2 0.3,-6.3 3.1,-1.5 2.6,-7.8 -1.9,-9.8 1.4,-7 -1.3,-4.8 4,-5.9 -4.9,-1 -2.2,-8.4 0.2,-2.6 -2,-10.5 -3.3,-0.3 -2.4,-6.1 -3.5,-1.5 -3.3,3.2 -7.5,-5.7 -8.8,1.6 -5.4,-1.4 -2.9,2 -5.9,-0.2 -1.8,1.5 v 6.4 l 1.6,12.5 3.4,3.1 0.9,4.7 -2.2,7.2 -12.6,6 v 5.2 l -3.8,7.9 -3.8,1.5 z"><title>Krško</title></path>
<path id="kungota" fill="#ffc900" d="m 729.9,93.5 -5.6,-0.9 -3.6,-4 -1.5,3.1 -7.1,1.5 -3.2,4.4 -4.6,0.6 2.9,7.8 -2.9,4.5 2.2,1.6 -2.8,4.9 5.4,0.1 2.5,2 10.9,-0.7 0.5,4.1 4,1 5,4.5 -0.8,4.1 6.2,2.6 0.5,-4.2 4.8,-0.4 -3.9,-9.5 -1.8,-9.1 -4.1,-6.4 0.2,-2.8 -3.1,-2.5 z"><title>Kungota</title></path>
<path id="kuzma" fill="#9aff00" d="m 896.1,9.7 -7.9,-5.9 -4.7,2.1 -5.5,5.5 -2.5,-0.2 -4.2,6.9 0.2,5.1 -1.4,4.4 1.1,2.7 4.3,0.9 6.1,-8 6.3,0.2 2.7,1.3 4,-1.8 -1.7,-1.7 4.1,-6.5 z"><title>Kuzma</title></path>
<path id="lasko" fill="#cdff00" d="m 623.2,324.5 -5,-1.2 -8,-0.6 -2.3,-3.6 -8.2,5.6 -3.6,-4.1 -2.9,5.2 -5.5,-0.1 -4.3,1.8 -5.5,-2.7 -2.7,1.3 -11.4,2 6,7.1 -1.1,4.1 6.3,-0.7 3.5,4 -0.3,3.6 4.3,2.5 3.6,6.3 0.3,4 -3.7,6 -7.9,-2.8 -3.8,2 6.9,5.3 4.4,3.3 2,4.1 2.7,-0.3 3.7,-3 4.3,1.4 3.3,-2.5 4.1,4.1 6,0.4 5.9,-4.2 0.3,4 2.7,3.2 -1,5.2 3,-0.3 0.1,-3.8 5.1,0.3 4.9,-3.3 11.5,1.2 3.1,-0.8 4.3,-5.8 1.2,-6.7 -2.3,-4.1 2.3,-1.4 -3.4,-7.3 -0.6,-3.9 -2.6,-4.9 v -4.2 l 4.5,-1.3 -0.5,-7.9 -3.9,-3.3 -7.7,3.1 -3.8,4.3 -7.4,1.7 -5.1,-1.6 -0.8,-2.8 5.1,-1.2 1.4,-3.7 z"><title>Laško</title></path>
<path id="lenart" fill="#ffdb00" d="m 808.6,126 -4.1,-0.4 -4.3,2 -0.6,-3 -6.3,3.8 0.4,4.1 -10.4,5.7 -3.7,3.1 -5.1,-1.2 -2.4,4.7 4.3,5.1 0.4,3 -5.5,3.3 4.6,1.2 2.1,-2.3 5,4 -0.4,3.7 6.1,2.9 3.3,3.5 1.1,3.7 -4.5,1.5 -0.3,3 2.9,2.5 1.7,0.9 5.4,-4.2 4.4,-1.7 v -2.1 l 4.1,-8 1,-3.7 -6.7,-5.5 6.8,-4.6 -1.2,-4.2 1.4,-2.2 -3.8,-2.9 0.8,-7.9 4.9,-3.1 z"><title>Lenart</title></path>
<path id="lendava" fill="#ffdb00" d="m 961.9,158.2 2.6,0.2 8,-2.3 1.7,2.8 3.6,0.2 8.2,6.3 6.7,0.1 1.9,4.6 10.4,0.3 6,4 2,5.1 5,1.1 3,2 -1,4.5 11,2.7 4,-0.8 4,2.7 5,-0.6 -4,-3.7 -17,-11.6 3,-4.2 -3,-2.4 2,-5.7 -4,-1.7 -1,-3.3 1,-5 -3,-5.6 -3,1 -6,-1.7 1,-5.5 -8,-9.2 -2,-0.4 -2.9,-6.2 -6.7,-1 -4.1,-6.8 -7.1,-5 -5,2.8 -1.7,-1.6 -3.4,3.9 1.2,1.7 -3.3,5.5 5.6,5.5 2,3.6 7.8,6.8 -0.8,1.9 -8.5,2.3 -2.2,3.1 -9.1,4.3 -4.9,-1.4 -0.9,3.8 2.6,2.9 z"><title>Lendava/Lendva</title></path>
<path id="litija" fill="#ffff00" d="m 473.7,349.6 -5.3,4.3 -4.9,0.6 -4.6,7.8 h -3.6 l -8.3,5.1 -1.5,4.5 -10.1,1.9 -1.5,3 3.7,2.5 0.3,3.2 7.2,-1.1 3.2,1.2 6.1,6.8 2.7,-0.2 4.3,3.4 3.5,-3.9 3.9,-0.4 2.3,2.5 5,-2.1 9.2,-1.9 1.5,-5 6.7,2.4 0.2,3.1 4,1.1 2.4,3.3 3.3,1.4 -2.1,3.8 2.6,6.4 -1.9,6.6 2.5,1.8 -1.6,4.2 0.8,4.5 6.3,-0.3 0.9,3.1 5.4,1.6 1.2,2 5.3,0.5 4.2,3.2 4.9,-0.6 0.3,-3.7 5.6,-3.2 0.5,-3.2 -2.3,-5.7 V 411 l 9.3,0.1 1,-4.2 8.1,0.4 1,-4.5 4.4,1.5 -3.4,-6.4 v -3.8 l -3.5,-0.5 -3.4,-5.9 -0.1,-5.2 -8.8,2.4 -7.8,4.9 -6.5,-1.1 -2.8,-2.5 1.9,-7.9 -1.5,-5.7 3.9,-1.3 1.1,-3.9 -2.1,-5.5 0.2,-0.6 -2.8,-2.9 -8.7,5.6 -2.2,4.2 -5.7,2.3 -8.3,-1 -3.5,1.3 -2.3,-1.6 -0.6,-4.8 0.2,-10.3 -1,-1.3 -6.2,0.4 -3.9,-1.2 -2.2,1.6 -5.7,0.3 z"><title>Litija</title></path>
<path id="ljubljana" fill="#ffed00" d="m 369.6,345.7 -8.7,1.3 -1.4,2 -4.2,-2 -1.3,2.8 -6.3,6.1 -5.5,-2.9 -2.3,3.7 2.9,8.1 3.7,3.1 -2.5,1.8 -5.5,0.5 -3,4.9 5.1,0.6 -0.6,4.2 3.7,3.7 2.3,4.8 -2.3,5.6 2.8,2.9 -3.8,3.3 2.3,6.8 8.1,2.2 -2.6,5.2 -7.8,5 1.3,5.1 3.8,0.8 4,-2.1 6.5,0.1 -2.1,-7.7 12,-3.8 1.1,2.9 6.7,3 1.7,-8.3 4.1,-2.1 3.8,-0.2 6.5,-2.8 2.7,5 2.2,0.6 5.4,5 3.2,4.2 4.5,-1.4 9,1.4 1,-2.9 4.2,-1.6 -2.5,-3.5 3.7,-3 2.5,1.3 3.6,-3.4 4.5,4.2 0.4,2.3 6.9,1.9 2.4,-2.2 -1.8,-9.8 2.7,-3.6 -8.4,-9.9 6.9,-3.6 -0.1,-3.9 -7.2,1.1 -0.3,-3.2 -3.7,-2.5 -6.3,1.8 -4.9,-2.7 -9,0.3 -7.1,2.1 -9.2,-4.9 -1.9,-5 -0.1,-3.4 -7.6,-3.1 -2.8,-2.6 -3.4,0.4 -8.6,-5.2 -1.3,-2.6 z"><title>Ljubljana</title></path>
<path id="ljubno" fill="#ffff00" d="m 489.1,216.1 -3.7,-0.3 -7.9,1.4 -3.2,-2.8 -8.1,0.9 -3.5,-0.6 2.1,0.9 -0.5,8.6 2.5,3.8 -1.9,5.3 -3,2.5 -2.3,4.8 1,2.5 -4.6,6.6 0.1,6.3 5.2,-1.2 4.7,6 h 5.5 l 3.8,6.7 3.1,0.7 5.7,-1.3 1.3,0.2 3.2,-6.8 -2,-3.9 1.2,-8 2.8,-1.1 0.7,-7.3 2.7,-4.9 1.5,-5.4 -1.8,-4.6 1.4,-6.3 z"><title>Ljubno</title></path>
<path id="ljutomer" fill="#ffed00" d="m 929.8,152.9 -3.4,-2.6 -8.8,-8.8 -2.3,4.8 -8,2.2 -1.9,3.3 1.9,2.2 -0.9,6.1 -1.9,3.7 -5.4,0.4 -1.1,1.9 -4.9,-2.8 -5.4,1.3 -4,-2.2 -2.4,-4.1 -6.1,0.8 -6.9,-1.6 -5.1,0.1 -2.8,4.3 -3.4,10.4 -0.9,1.3 3.7,1.2 6.3,-0.8 7,4.8 14.8,-0.7 2.8,4.8 6.7,2.8 1.8,-5.2 4.8,-2.2 2.9,6 5,7.2 4.8,-4.1 3.5,4.3 2,-4.8 3.2,-3 5.6,-0.9 -0.2,-3.8 3.5,-1.1 0.9,-6.4 -3.2,-0.3 -0.9,-3.1 6.2,-4.7 2,-3.6 z"><title>Ljutomer</title></path>
<path id="logatec" fill="#cdff00" d="m 300.5,466.1 -2.3,-8.4 -11.2,-12.5 -1.4,-3.7 -5,-3.6 -7.7,-1.1 -3.3,-4.1 5.5,-3.6 -3.1,-3.9 0.1,-4.6 7.3,-5.5 -7.4,-5.7 -4.7,-0.7 -3.2,1.5 0.8,-8.5 -0.4,-6.1 -1.3,0.3 -3.2,3.7 -0.2,3.2 -6.1,0.9 -5.4,7.3 1.5,0.8 -6.2,11.2 -3.9,-0.3 -1.9,3.3 0.8,3.4 3.1,3 0.1,3.5 -2.7,2 -0.4,4.2 -4.1,3.6 1.3,4 -0.3,5.4 6.4,6.6 1.1,8.2 1.8,4.2 6.9,-3.6 2.2,2.5 5.5,-1 5.2,-2.3 4.1,4 4,0.5 3.1,3.1 6,1.2 0.6,4 2.3,0.8 5.8,-1.6 2.7,2.9 7.1,-15.1 z"><title>Logatec</title></path>
<path id="loska-dolina" fill="#00ff00" d="m 358.4,530.3 -11.4,5.7 -0.9,2.6 -13.2,13.3 -4,-3.2 -2.9,4.4 6.5,10.7 3.6,4.1 6.7,1.5 1.4,1.8 -2.1,7 0.9,2 -4.3,11.2 2.2,2.4 5.1,0.9 3.2,5.6 -0.4,7.8 5.2,-1 5.2,0.7 3.5,-1 3.2,2.2 1.6,-6.6 -1.9,-6.6 3.3,0.5 4.8,-1.5 5.9,-5.7 7.4,-14.4 0.9,-9 -2.9,-0.8 -0.4,-8.2 -2,-6.7 -3.6,-8.5 -1.6,-6.7 -3.6,3.3 -3.4,-1.1 -3.2,2 -2.6,-4.5 z"><title>Loška dolina</title></path>
<path id="loski-potok" fill="#ffc900" d="m 440,576.6 1.5,-2.1 -1.2,-6.8 -2.7,-0.1 -0.5,-4.2 -5.7,-1.5 -14.3,-1.7 1.6,-3.1 -3.6,-3.5 -3.3,-7.3 -7.8,-9.3 -3.7,2.1 -3.3,-0.2 -2.5,-3 -3.8,-0.3 -5.8,1.9 -4.1,-4.7 -3.4,2 1.6,6.7 3.6,8.5 2,6.7 0.4,8.2 2.9,0.8 4.1,3.7 5.2,-1.7 3.1,5.3 -2.1,10.6 -1.8,3.1 5.6,5.1 4.4,1.4 1.4,4.2 2.8,0.3 3.8,5.7 8.7,1.2 3.5,3.6 2.6,-4.4 8.3,-4.6 -3,-10.5 -5.4,-5.6 9.7,-0.9 z"><title>Loški Potok</title></path>
<path id="luce" fill="#7E7E7E" d="m 462.7,214.7 -4.5,-3 -4.2,-1.2 -3.1,3.9 -3.6,2 -7.1,6.6 3.3,6.8 -2.5,3.3 -4.2,-0.8 -6.3,4.9 -2.6,-2.1 -8.7,8.9 h -4.8 l -4.4,-1.7 v 15.9 l 6.6,7.7 5.2,1.8 1,7.8 -1.1,4.7 2.8,1 7.1,-1.5 1.9,-5.9 4.2,-1.8 0.3,-3.1 11,-4.4 4,-6.9 3.1,-1.6 -0.1,-6.3 4.6,-6.6 -1,-2.5 2.3,-4.8 3,-2.5 1.9,-5.3 -2.5,-3.8 0.5,-8.6 z"><title>Luče</title></path>
<path id="lukovica" fill="#cdff00" d="m 494.6,317 -2.4,-1.4 -6.5,2.6 -4.4,-0.2 -3.2,2.7 -10.8,-1.6 -8.1,2 -8.1,0.2 -3.9,2.7 -5,-5.8 -7.7,-0.2 -2.6,3 -7.4,-0.3 -3.5,2.7 -2.5,6.5 -5.7,6.1 4.1,3.9 8.8,6.4 6,-0.8 1.2,-4.8 8.2,-5.8 6.4,3.5 5.4,-1.7 2.2,-2.4 3.3,2.2 9.8,2.8 3.1,-0.4 -0.7,-5 h 6.2 l 5.3,-1.3 3.6,-2.6 5.4,1.5 4.9,-6.4 z"><title>Lukovica</title></path>
<path id="majsperk" fill="#ffdb00" d="m 791.4,245.4 -6.2,0.3 -2.4,-2.4 -7.9,-2.6 -4.8,1.2 -8.6,-1.3 -3.5,1 -11.8,-1.7 -2.1,4.2 0.9,6.2 4.3,1.6 6.3,-2.8 3.5,3.3 -0.9,6.9 0.3,6.9 -1.7,6.6 -5.6,9.2 -4.8,2.3 5.2,2.9 13.7,0.4 2.5,2.8 4.3,-1.9 0.3,-5.4 -1.4,-2.9 1.3,-4.3 6.6,-1.9 2.6,-3.3 0.2,-3.9 v -0.1 l 2.7,-4.5 2.8,-3.4 0.4,-5.2 2.6,-1.1 1.7,-3.8 z"><title>Majšperk</title></path>
<path id="maribor" fill="#ffa500" d="m 737.4,134.7 -6.2,-2.6 0.8,-4.1 -5,-4.5 -4,-1 -0.5,-4.1 -10.9,0.7 -2.5,-2 -5.4,-0.1 -2.1,-1.6 -5.1,5.5 0.2,7.1 2.6,5.7 6.6,2.1 -2.7,4.5 0.9,5.7 3.1,3.3 2.4,3 -2.9,9.4 -0.9,9.3 4.1,3 5.6,-2.7 5.4,-0.8 5.3,-2.4 0.7,3.9 8.9,2.3 7.1,-1.5 6.6,-2.7 1.4,1.5 4.3,-1.3 1.2,4.3 5.8,1.8 1.9,2.2 0.5,-1.6 -3.9,-3.1 -1.6,-8.6 6.7,-0.7 1.4,-3.5 4.1,-4.9 5.5,-3.3 -0.4,-3 -4.3,-5.1 -4.6,1.3 -5.1,3.7 -4,-4.7 -8.7,-3.7 0.4,-6.8 -3.3,-1.5 z"><title>Maribor</title></path>
<path id="medvode" fill="#cdff00" d="m 351.6,323.4 -8.3,1.6 -3.3,-1.6 -5.6,0.8 3.1,8.2 2.4,2.2 -8.7,4.7 -4.5,-0.1 0.1,3.6 -5.8,0.2 -4,2.9 -1.3,3.6 -6.1,3.7 -0.4,5.4 2.7,2.3 0.2,3.2 -3.3,4 2.3,5.8 4.3,-0.8 3.2,3.9 1.9,-5.4 4,-1.4 8.1,5.9 2.9,-1 3,-4.9 5.5,-0.5 2.5,-1.8 -3.7,-3.1 -2.9,-8.1 2.3,-3.7 5.5,2.9 6.3,-6.1 1.3,-2.8 -1.8,-6.7 0.2,-3.8 -2.7,-5.9 z"><title>Medvode</title></path>
<path id="menges" fill="#9aff00" d="m 392,321.5 -10,7 -4.5,4 1.2,5.5 -5.2,2.1 -1.5,5 -2.4,0.6 2.1,6.2 3,-1.6 8.6,-1.4 2.7,-3.2 6.1,-0.6 3.1,-4.1 -3.1,-9.6 2.1,-6 z"><title>Mengeš</title></path>
<path id="metlika" fill="#ff4200" d="m 624.2,606.2 -5,-5.5 -1.6,-3.4 5.2,-3.6 4.9,-1.1 -2,-3.3 1.1,-4.7 6.6,-1.3 4.8,0.9 3.9,-2.6 -0.3,-3.8 13,4.2 4.7,-4.8 -3.6,-2.7 -3.4,-9.2 -2.6,-1.5 -3.9,-9.5 -2.4,-0.7 0.3,-6.7 -6.1,-0.5 -1.2,4.2 -5.6,4.9 0.5,3.7 -3.7,0.5 0.2,-5.7 -6.7,2.7 -0.2,-6.1 -2.1,-2.5 -3.8,1.7 -0.7,-4.6 -2.2,-4.2 -7.1,1.3 -4.8,3.7 -2.8,3.7 2.9,1 1.8,7.4 6.6,4.2 2.8,4 -1.5,3.1 7,6.7 -2.8,3 -6.6,2 -1.4,4.8 -4.8,7.4 -5.6,-0.3 -1.4,4.6 8.1,3.3 4.1,5.2 4,2.5 4.1,-1.6 2.6,5.7 5.6,-4.4 z"><title>Metlika</title></path>
<path id="mezica" fill="#ffdb00" d="m 494.7,178.2 1.2,-4 -6.6,-5.2 -2.8,-4.3 0.6,-4.1 -3.8,-1.1 v -5 l -5.1,2.3 -6.6,-1 -1.5,2.2 -0.2,8.6 -1.5,1.3 0.2,6 3.3,-1.2 1.8,5.9 5.3,2 0.8,-1.9 5.4,0.7 2.8,3.6 6.5,-2.8 z"><title>Mežica</title></path>
<path id="miren-kostanjevica" fill="#9aff00" d="m 110.1,476.9 -7.7,-1.3 -0.7,2.4 -8.2,-1.5 -9.5,-3.5 0.5,-4.8 5.5,-6.5 -10.2,-0.6 -3.2,-2.9 -4.8,4.1 -3.3,6.6 0.2,4.4 -4.1,13 4.6,3.8 2.8,7.4 14.7,-0.2 4.6,1.9 8.3,-0.2 2.3,-8.7 3.4,-0.1 4.9,-4.3 1.4,-5.1 -1.1,-3.8 z"><title>Miren - Kostanjevica</title></path>
<path id="mislinja" fill="#9aff00" d="m 591.1,174.8 -0.7,5.6 -10.5,15.2 -4.3,0.4 2.4,5.1 -1.6,5 -5.7,2.9 0.9,2.3 -4.2,5.3 0.4,2.4 7.8,5.3 5.8,-3.7 4.2,-0.1 v 3.7 l -2.1,5.7 5,1.9 13.1,-1.6 8.8,-11.5 0.2,-6.2 4.4,-7.8 4.1,-0.2 3.9,-2.1 8.7,-0.2 2.5,-2.8 -3.6,-3.4 -2.2,-5.2 1.2,-2.8 -0.9,-5.2 -9,-0.2 -9.4,-2.5 -6.7,4.4 -4,-2.3 -2.6,-4.5 z"><title>Mislinja</title></path>
<path id="moravce" fill="#66ff00" d="m 471.3,338.9 -3.1,0.4 -9.8,-2.8 -3.3,-2.2 -2.2,2.4 -5.4,1.7 -6.4,-3.5 -8.2,5.8 -1.2,4.8 -6,0.8 1.8,9.1 -1.7,3.2 3.5,3.4 4.9,-1.5 3.8,1.1 1,4.4 2.6,2.1 5.4,-0.7 8.3,-5.1 h 3.6 l 4.6,-7.8 4.9,-0.6 5.3,-4.3 2.9,-4.6 -2.6,-1.5 z"><title>Moravče</title></path>
<path id="moravske-toplice" fill="#ffff00" d="m 936.1,47.6 -4.6,4.2 -0.4,3.6 -4.1,1.7 0.9,2.5 -3,4.8 -4.3,-1 -5.9,10.7 -4,-2 -3.2,4.8 2,8.8 5.1,7.7 -1.9,6.4 12.3,6.6 4.6,0.1 9.3,3.7 2.7,-8.3 4.6,6.8 1.8,0.1 4.7,1.9 -1.7,-4.3 3,-1.3 1.2,-7.9 2.8,-5.3 3.5,-2.7 5.5,2.9 1.6,-5.3 3.5,-5 3.6,-3.3 -2.7,-5 -2.9,2.4 -2.7,-0.9 -1.5,-6.1 -5.4,-8 -4.7,-2.8 3.6,-11.3 h -5.7 l -5.9,2.8 -6.8,0.3 z"><title>Moravske Toplice</title></path>
<path id="mozirje" fill="#cdff00" d="m 526.7,237.3 -0.5,-7.6 -8.8,0.3 -2.4,1.1 -7.1,-7.3 -5,0.7 -5.3,6 -2.1,-0.8 -1.5,5.4 -2.7,4.9 7,5.2 3.4,0.5 1.7,6.2 5.8,4.5 8,8.9 0.5,7.6 3.1,-4.4 3.3,-1.7 -0.6,-3.8 1.4,-3.1 5.4,-3.3 -3.7,-8 z"><title>Mozirje</title></path>
<path id="murska-sobota" fill="#ff6300" d="m 929.6,106.5 -4.6,-0.1 -12.3,-6.6 1.9,-6.4 -5.1,-7.7 -5.1,-0.1 -2.4,5.6 -2.9,-2.7 -11.9,0.6 -1.6,8.1 1.4,7.5 6.9,3.1 -0.6,3.1 -5.9,7.7 -2.4,5.3 2.7,3.6 1.4,3 4.9,-0.9 5.5,0.7 3.5,-0.2 8.4,-6.4 0.9,-6.4 4.2,2.6 2.9,-6.4 4.1,-1.2 z"><title>Murska Sobota</title></path>
<path id="muta" fill="#ffff00" d="m 579.6,104.1 -4.8,-1.2 -6.7,2.7 -4.6,-2.7 -3.8,2.9 -3.4,0.7 -1.9,3.3 2.7,1.5 1.9,11.3 3.9,5.5 6.2,5.5 7.7,0.9 5.6,-5.5 0.7,-2.6 3.9,-2.9 2.3,-0.9 -6.6,-7.8 1.8,-4.2 z"><title>Muta</title></path>
<path id="naklo" fill="#9aff00" d="m 308.7,264.4 -6.8,-2.7 -4.1,1 -8.8,-1.1 -1.8,13.9 2.3,8.2 1.9,1.6 12.6,4.5 2.7,4.8 2.8,-1.2 3.1,-10.2 -2.9,0.3 -7.3,-9.3 5.8,-3.6 -1.5,-3.3 z"><title>Naklo</title></path>
<path id="nazarje" fill="#ffff00" d="m 509.2,256.4 -2.2,3.6 1.3,6.2 -7,6.4 -4.4,2.3 -7.9,-2.4 -1.6,1.3 -0.7,4.5 -3.8,3.3 -3,8.9 0.3,5.3 2.4,2.6 7.2,3.4 5,-6.6 -1.7,-4.8 8.5,1.9 -0.1,-3.2 5.4,-3 3.2,-3.4 6.3,-0.3 2.2,-5.6 -0.9,-3.9 -0.5,-7.6 z"><title>Nazarje</title></path>
<path id="nova-gorica" fill="#cdff00" d="m 100.7,448.3 3.9,0.4 2.9,-2.2 4.1,0.6 -1.1,5.9 0.2,5 -5.1,5.4 -0.6,3.9 5.2,4.6 -0.1,5 0.4,0.1 9,2.6 6,3.6 3.1,4.2 5.9,3.4 6.1,-0.7 3.6,-4.2 6.7,4.2 -0.2,-5.5 -3.4,0.3 -7.3,-4.6 -3.5,-6.2 1.6,-1.5 -6.8,-4.8 -7.7,-2.4 -0.6,-4.7 -3,-3.3 3,-3.4 5.5,-1.3 7.5,-8.4 4.1,-8.7 -2,-11.3 9.1,2.5 11.5,-3.6 -6.6,-8.9 3.7,-1.4 4.3,-2 -5.9,-4.9 -6,-3 -2.9,-6.5 -5,-6.9 0.2,-10 3.5,-2.5 -4.4,-4.6 1.3,-4 -2,-5.3 -4.4,0.7 -3.1,-1.2 -3.1,4.5 0.5,6.5 -5.6,11.7 -5.5,3.3 -4.8,-3 -4.9,-6.2 -6.5,-0.6 -3.7,2.8 -1,3.1 -4,2.3 -6.1,10.2 -2.1,9.1 5.9,6.8 -5.4,1.5 -6.5,-6 -2.9,0.4 3.8,2.7 2.5,4.2 -2.3,4.4 4.1,-2.1 3,3 -3.1,15.7 1.2,5.1 3.4,1.1 3.7,4.2 3.6,-1.5 2,3.2 z"><title>Nova Gorica</title></path>
<path id="novo-mesto" fill="#ff8400" d="m 572.1,471.7 -2,3.6 0.8,4.6 -2,4.2 -3.9,3.1 -2.5,4.8 0.2,4.2 -5,1.7 5.2,1.9 2.5,2.4 1.9,6.8 -3.7,5.7 -0.2,4.7 1.6,3.7 -4.1,6.8 4.7,4.6 -2.5,4.2 -0.3,3.1 3.9,4 -3,7.2 -3.3,0.6 -0.1,4.8 4.2,0.2 4,-2.3 9.1,-0.8 5.7,4.8 2.2,-2.8 8.1,-3.3 4,-4.5 2.8,-3.7 4.8,-3.7 7.1,-1.3 5.5,-6.3 5.5,-4 1.5,-3 5.7,-2.5 -2.5,-13.2 -6.6,-5.5 -2.2,-3.7 -0.8,-4.5 -3.9,-0.4 -2.2,-5.2 -0.2,-5.6 -2,-3.2 -3.5,-4.8 -6.3,2.8 -8,-11.2 -7.1,4.5 -6.9,-2.8 z"><title>Novo mesto</title></path>
<path id="odranci" fill="#9aff00" d="m 947.4,133.4 -4.1,0.1 -4.2,-3.2 -4.2,5.7 -1.1,4.4 2.6,5.3 3.8,-3.9 3.3,1 3,-4.8 z"><title>Odranci</title></path>
<path id="ormoz" fill="#ffff00" d="m 931,183 -5.6,0.9 -3.2,3 -2,4.8 -3.5,-4.3 -4.8,4.1 -5,-7.2 -2.9,-6 -4.8,2.2 -1.8,5.2 -6.7,-2.8 -1.7,4.8 0.5,8.7 -6.3,5.4 -7.4,-2 -1.4,5.4 -3.2,-1.3 -4.2,-5.8 -3.9,-0.2 -0.9,5.9 -4.4,6.2 1.6,2.1 7.1,-0.1 -0.1,6.9 1.5,4.4 3.3,5.2 10,2.3 15.4,-7.4 5.2,0.2 7,6.2 4.2,1.8 0.8,4.4 6.5,-3 4,-5.3 -2.7,-4.5 3.1,-2.9 -4.5,-4.5 -0.7,-2.4 5,-1.5 0.1,-4.3 5.1,1.8 2,6.3 5.7,-1.6 2.9,-3.8 -2.3,-6.9 -1.3,-10.5 -2.6,-5.8 z"><title>Ormož</title></path>
<path id="osilnica" fill="#7E7E7E" d="m 461.2,636 -2.4,-3.1 -10.5,-9.4 -10,-5.3 3.4,-5.6 -2.7,-2.1 -1.5,-11.3 -8.3,4.6 -2.6,4.4 2.9,6.4 -0.7,5.3 -2.2,1.6 -1,9.8 4.7,2.9 0.4,-3.5 6.2,-0.6 15,11.8 6.3,1 0.2,2.6 1.4,-1 z"><title>Osilnica</title></path>
<path id="pesnica" fill="#ffed00" d="m 778,115.6 -6.3,-6.9 0.6,-1.8 -5.2,-4.3 0.3,-3.5 -5.5,-3 -5.1,3.5 -2.3,-4.2 -4.2,1.2 0.9,3.9 -5,1.3 0.4,8.4 -3.1,2 -4.5,-2 -2,1.3 1.8,9.1 3.9,9.5 -4.8,0.4 -0.5,4.2 9.4,-1.6 3.3,1.5 -0.4,6.8 8.7,3.7 4,4.7 5.1,-3.7 4.6,-1.3 2.4,-4.7 -2.7,-4.6 -0.2,-6.1 3.8,-9.4 -0.1,-3.8 z"><title>Pesnica</title></path>
<path id="piran" fill="#ffdb00" d="m 78,627.4 -4.5,1.6 1.7,2.9 -3.2,1.8 -5.6,0.5 -2.5,-1.7 -2,3.3 1.8,3.5 6.6,0.4 1,4.2 -3.5,2.9 2.6,4.3 -2.4,6 8.7,6.1 7.8,2 8.3,3.1 2.9,2.9 4.5,-2.5 0.5,-6 8.7,-10.3 -0.4,-2.4 -11.5,-1.6 -1.2,8.7 -5.1,1.5 -0.7,-3 -7.3,-7.2 -0.6,-7 -3.4,-5.9 0.5,-4.2 z"><title>Piran/Pirano</title></path>
<path id="pivka" fill="#66ff00" d="m 308.7,526.7 -15.9,8.3 -7,6.6 -10.3,3.3 -1.7,-3.7 -5,4.9 -10.2,5 -7.4,1.4 -7.1,-3.9 -9,-3 -8.5,3.8 0.1,4 -2.3,6.9 3.8,1.1 0.5,2.8 -2,8.3 4.4,4.9 -1.3,7.6 4.6,2.9 1.6,2 3.6,-1.2 1.9,-4.9 6.3,-0.2 8.4,5.7 17.8,-2.2 4,-2.8 2.6,-4.4 6.2,-2.3 5.7,-3.3 20.7,-4 -4.3,-7.2 7.3,-3.1 4.9,5.7 4.5,7.1 0.4,6 5.5,-0.8 2.3,1.5 8.3,-1.3 2.1,-7 -1.4,-1.8 -6.7,-1.5 -3.6,-4.1 -6.5,-10.7 2.9,-4.4 -5.3,-4.2 -8.3,-9 -5.2,-2.2 z"><title>Pivka</title></path>
<path id="podcetrtek" fill="#cdff00" d="m 734.2,326.2 -1.5,-5.6 -5.4,-0.6 -0.9,-3.3 -3.1,-0.1 -8.3,5.7 -1.6,3.9 -3.4,2.7 -0.2,7.4 -8.2,2.8 -0.2,3.6 -2.4,2.6 -0.8,5.4 1.4,3.7 5.4,-1 5.3,7.3 4.2,-0.4 4.1,1.7 3.3,5.9 -6.7,5.4 3,9.2 3.6,-1.5 4.8,-1.7 4.6,-6.3 -0.9,-4.7 -3.8,-3.1 -2.5,-4.7 2.2,-6 -1.6,-5.6 -3.3,-4.9 5.6,-2.4 -3.4,-4.2 3.8,-4.5 5,-1.8 z"><title>Podčetrtek</title></path>
<path id="podvelka" fill="#cdff00" d="m 658.1,105.8 -6,1 -12.7,0.3 -2.8,-1.1 -1.7,5.6 1.2,3.9 -1.7,5.9 2.2,4 -8.5,1.8 -5,3.6 -2.6,-0.3 -2.7,6.5 v 4.5 l -2.2,4.5 7,5.9 1.2,4.8 3.9,-2 3.2,5.6 -2.2,1.7 0.7,11 3.8,-0.1 5.4,-8.3 1.3,-12 7.9,-4 0.2,-3.2 -2.2,-5 3.2,-2.2 8.8,1.5 7.2,8.4 5.4,-1.8 -0.3,-5.2 1.5,-1.6 -2.9,-1 -0.8,-6.2 3.4,-4 -0.1,-3.1 -2.7,-3 -0.2,-6 -1.9,-2.7 -5.1,-3.7 z"><title>Podvelka</title></path>
<path id="postojna" fill="#ffff00" d="m 308.7,526.7 -10.1,-0.6 -8.3,-9.2 1.1,-1 -6.8,-8.4 4.7,-3.5 -0.3,-3.6 2.4,-3.3 2.1,-6.3 -0.2,-6.2 -2.7,-2.9 -5.8,1.6 -2.3,-0.8 -0.6,-4 -6,-1.2 -3.1,-3.1 -4,-0.5 -4.1,-4 -5.2,2.3 -5.5,1 -2.2,-2.5 -6.9,3.6 -6.1,3.5 -2.7,6 -17.2,5.5 6.7,11.5 -4.6,6.3 -0.8,7.9 -3.6,9.8 2.2,4.2 8.8,1.7 5.7,9 1.8,6.1 9,3 7.1,3.9 7.4,-1.4 10.2,-5 5,-4.9 1.7,3.7 10.3,-3.3 7,-6.6 z"><title>Postojna</title></path>
<path id="preddvor" fill="#7E7E7E" d="m 376.7,245.6 -3.3,-1.6 -2.1,2.2 -4.1,-2.8 -4.3,1.5 -5.7,-1.9 -12.7,-1.6 -2.5,8.9 -3.4,0.8 -4.4,-2.1 -4.4,12.3 0.1,3.4 -1.9,7.8 h -4.9 l -0.9,4.2 3.6,3 7.3,-2.9 4.6,2.2 3.8,0.6 7.8,-2.5 4.8,0.7 0.7,-2.4 5.9,-0.3 3.8,1.7 3.2,-0.9 6.1,-4.1 0.2,-2 5.1,-1.7 3.9,-4.5 -5.4,-4.6 3.8,-8.2 z"><title>Preddvor</title></path>
<path id="ptuj" fill="#ffc900" d="m 791.2,179.9 -0.4,4.1 -3.2,0.3 -7.4,5.9 -0.8,2.9 5.1,-0.4 5.1,5 2.9,1 1.6,1.1 7.1,10.9 1.1,3.7 0.4,10.7 2.2,3.3 2.9,-1.8 1.7,3.1 -1.6,2.6 4,-4.1 6.3,-0.9 5,-4.7 7.8,-2.7 2.1,-4.2 -1.7,-2.5 3.2,-10.1 -0.4,-2.1 -2.9,-4.7 0.9,-8.7 -8.6,3.9 -4.9,8.1 -8,1.2 -7.5,-8 -2.4,-6.6 -6.2,-2.1 -1.7,-3.3 z"><title>Ptuj</title></path>
<path id="puconci" fill="#ffb700" d="m 920.6,63.4 -5.5,-5 -2.6,-0.6 4.2,-6.4 4.9,-2.9 -4.2,-8.2 -4.2,0.5 -5.1,-6 -1.1,-4.4 -5.3,-6 -4,-0.4 -2.2,8.9 1.6,2.5 -3,8.3 -4.6,2.2 0.2,8 -3.6,2.2 -11.3,-4.5 -1.5,3.2 -2.4,3.4 2,5.9 -1.9,3.7 0.4,3.2 -4.4,3.6 4.9,8.8 8.2,1 2.3,3.6 4.8,1.1 11.9,-0.6 2.9,2.7 2.4,-5.6 5.1,0.1 -2,-8.8 3.2,-4.8 4,2 z"><title>Puconci</title></path>
<path id="race-fram" fill="#ffff00" d="m 758.4,197.4 -2.5,-2.6 -5.3,-0.5 -3.2,1.4 -9.4,2.2 -6.3,-5.5 -4.2,-0.3 -3.1,-4.5 -6,3.7 -7.8,-5.5 -4.5,-1.1 -2.6,1.4 3.8,1.7 -1.6,6.5 6.2,1.6 5.7,6.2 12.9,5.6 1.1,3.3 10.4,2.6 1.4,4 5.3,3.8 11.6,-6.5 3.6,-3.1 -2.3,-2.1 -2.3,-5.3 2,-1.6 z"><title>Rače - Fram</title></path>
<path id="radece" fill="#ffff00" d="m 587,376.6 -2.7,0.3 -2,-4.1 -4.4,-3.3 -4.7,3.4 h -5.6 l -6.9,-3.6 -0.4,6.6 -5.8,1.2 -5.1,5.4 0.1,5.2 3.4,5.9 3.5,0.5 7.4,0.2 7.8,-2.6 6.8,2.7 13.6,2.7 2.3,3.9 3.9,-0.7 6.2,-4.3 -3.9,-4.4 -4.5,0.6 -2.3,-1.7 0.5,-4.8 -2.7,-6.1 z"><title>Radeče</title></path>
<path id="radenci" fill="#ffc900" d="m 885,123.9 -8,-7.3 -13,-9.7 0.7,-2.3 -1.5,-0.8 -6.3,4.9 -1,4 -3.9,1.2 -1.1,9 5.7,1.7 0.8,3.8 -1.9,5.8 4.7,1.4 5.4,-7.3 3.7,-0.9 2.9,4.6 -0.5,4.7 3.1,1.1 1.7,-3.3 5.3,-6.6 5.9,-0.4 z"><title>Radenci</title></path>
<path id="radlje-ob-dravi" fill="#cdff00" d="m 636.6,106 -4.9,2.4 -3,-1.9 h -5.8 l -5.3,4 -4.7,-0.5 -8.7,2.5 -12.5,-3 -4.9,-4.9 -5.1,0.9 -2.1,-1.4 4.9,6.5 -1.8,4.2 6.6,7.8 -2.3,0.9 5,5.7 3.3,0.3 3,5.3 -8.4,13.8 -1.7,4.8 -3.2,2 -1.7,4.9 2,1.4 0.2,4.3 2.4,1.6 4.3,-1.6 5.1,-9.1 3.4,-0.3 3.6,-5 5.7,-1.7 3.4,-4 2.2,0.1 2.2,-4.5 V 137 l 2.7,-6.5 2.6,0.3 5,-3.6 8.5,-1.8 -2.2,-4 1.7,-5.9 -1.2,-3.9 z"><title>Radlje ob Dravi</title></path>
<path id="radovljica" fill="#cdff00" d="m 278.6,215.1 -3.8,0.2 -4.4,2.5 -2.4,5.6 -3.2,4.3 -0.4,6.2 -6.6,1.7 -5.3,-1.6 -5.7,6.1 1.5,2 3.4,8.9 -2.7,4.3 -4.3,0.5 0.5,5.8 -6.2,3.4 -0.9,5.8 5,2.4 4.8,0.8 8.6,-1.1 1.4,-3.1 3.9,4.5 -1.8,7 6.3,2.7 3.8,-1.5 9.9,4.4 3.1,-1.3 6.1,0.7 2.2,-1 -1.9,-1.6 -2.3,-8.2 1.8,-13.9 -5.4,-5.6 -3,-7.4 3.2,-6.3 -0.6,-12.2 1.1,-6.1 -2.3,-3.1 2.4,-2.9 -2.6,-2.7 z"><title>Radovljica</title></path>
<path id="ravne-na-koroskem" fill="#9aff00" d="m 502.2,127.4 -1,2.7 -6,-3.5 -5.1,-1 4.7,12 4.8,0.7 3,5 2.6,7.5 3.9,-0.9 1.3,2.6 -3.1,2.6 1.4,8.3 2.1,5.4 -5,8.5 -3.9,1.1 5.6,0.2 0.8,7.3 8.1,-0.4 7,-2.4 2.1,-4.5 2.8,0.2 1.9,-6.9 0.2,-6.2 -1.7,-2.2 v -0.2 l 2,-6 1.7,-3.6 -1,-5.7 -2.6,0.7 -4.1,-3.9 -7.4,-3.9 -1.9,-4.6 -3.9,-2.6 -2.1,1.7 z"><title>Ravne na Koroškem</title></path>
<path id="ribnica" fill="#ffb700" d="m 426.3,497.7 -3.4,-1 -3.8,5.7 -4.9,2.7 -6.5,1 -5,-1.3 -2.9,1.8 -3.8,-0.7 -3.1,3.5 4.5,3.6 10.3,2.5 2.1,2 11.5,1 0.2,3.9 3.3,2.8 -3.4,4.9 -2.9,8.8 -3.1,6.1 -3.6,1.3 3.3,7.3 3.6,3.5 -1.6,3.1 14.3,1.7 5.7,1.5 0.5,4.2 2.7,0.1 1.2,6.8 -1.5,2.1 5.7,5 7.5,1.1 2.3,-1.6 -0.8,-4.5 3.6,-6.3 -2,-2.3 -2.6,-8 11.1,-12.3 0.1,-3 3.9,-5.4 -8.8,-6.8 -8.2,-7.2 -6.2,-7.4 -1.6,-4.3 -3.2,-1.7 -7.9,-6.4 -0.9,-2.5 z"><title>Ribnica</title></path>
<path id="rogasovci" fill="#ffc900" d="m 871.3,18.1 -5.6,-0.5 -2.5,1.8 -3,-2 -5.3,4.4 -3.8,-2.2 -3.4,3.8 0.8,3.8 3.3,4.1 -1.9,3.5 0.5,5.1 -1.6,8.4 6.2,0.6 v 2.5 l 4.1,6.1 6.4,-1.4 5.4,2.1 2.4,-3.4 -4.5,-1.8 1,-12.4 1.5,-5.8 -0.1,-4.5 -1.1,-2.7 1.4,-4.4 z"><title>Rogašovci</title></path>
<path id="rogaska-slatina" fill="#cdff00" d="m 734.4,281.4 -3.4,-3.1 -6.4,1.9 -2,-2.6 -4.3,1.3 -6,-0.4 -3,6.7 0.3,5.6 3.9,4.4 1.5,9 2.3,2.4 4.4,0.6 -2.2,3.7 3.8,5.7 3.1,0.1 0.9,3.3 5.4,0.6 1.5,5.6 4,-2.2 v -6.7 l -2.1,-2.7 1.5,-2.6 8,-3.5 1.2,-1.7 0.2,-5.5 6,-1.6 -0.4,-5 3.6,-4 4.6,-0.2 4.5,-2.9 -13.7,-0.4 -5.2,-2.9 -10.3,-0.2 z"><title>Rogaška Slatina</title></path>
<path id="rogatec" fill="#9aff00" d="m 772.1,288.5 -4.3,1.9 -2.5,-2.8 -4.5,2.9 -4.6,0.2 -3.6,4 0.4,5 -6,1.6 -0.2,5.5 8.7,2.3 8.6,-0.3 8.6,1.7 -1.4,3.8 5.6,1.1 5.8,-3.5 2.9,-5.5 -0.3,-3.5 2.6,-3.4 -3.3,-7.8 -7.2,2.3 -3.1,-0.6 z"><title>Rogatec</title></path>
<path id="ruse" fill="#ffc900" d="m 709.9,174 -4.1,-3 0.9,-9.3 2.9,-9.4 -2.4,-3 -9.8,2.5 -3.9,4.3 -6.6,2.5 -2.5,3.8 -8.4,-0.7 -2.1,-4 2.1,-8.5 -1.2,4.9 -2.8,2.4 1.9,4.7 -5.6,6.7 0.6,3.5 -5,3.9 -3.6,0.5 0.1,4 -1.9,5.2 1.2,4.4 5.3,-0.1 9.8,-2.8 6.9,-4.6 7.7,-2.5 9.9,1.4 2.7,-1.1 2,-3.6 z"><title>Ruše</title></path>
<path id="semic" fill="#ff0000" d="m 596,593 5.6,0.3 4.8,-7.4 1.4,-4.8 6.6,-2 2.8,-3 -7,-6.7 1.5,-3.1 -2.8,-4 -6.6,-4.2 -1.8,-7.4 -2.9,-1 -4,4.5 -8.1,3.3 -2.2,2.8 -5.7,-4.8 -9.1,0.8 -4,2.3 -4.2,-0.2 -7.4,-2.2 -4.3,0.5 -2.7,2.5 -1.7,8.2 -5.5,2.9 -1.8,3.7 3.3,3.4 -3.8,5.6 1.8,1.8 4.3,9.2 5.6,2.6 10.5,4.4 2,-1.1 8.5,-1.1 3.5,-8.5 5.1,-3.5 3.9,-0.5 1.7,2.1 11.5,3.4 z"><title>Semič</title></path>
<path id="sevnica" fill="#cdff00" d="m 575.7,423.5 4.7,9.9 6.8,5.2 1,2.5 4.7,3.6 7.8,1.9 3.4,-2.8 3.2,-6 2.9,-2 4.2,4.4 3.9,-8.3 5,2.4 3.2,-2.8 5.5,1.9 3,-1.3 0.8,6.6 5.9,3.6 0.2,-4 3.8,-1.5 3.8,-7.9 v -5.2 l 12.6,-6 2.2,-7.2 -0.9,-4.7 -3.4,-3.1 -1.6,-12.5 v -6.4 l 1.8,-1.5 -4.8,-0.8 -4.2,-2.8 -3.2,2 -4,-2.2 -3.1,0.8 -11.5,-1.2 -4.9,3.3 -5.1,-0.3 -0.1,3.8 -3,0.3 1,-5.2 -2.7,-3.2 -0.3,-4 -5.9,4.2 -6,-0.4 -4.1,-4.1 -3.3,2.5 -4.3,-1.4 -3.7,3 4.5,3 2.7,6.1 -0.5,4.8 2.3,1.7 4.5,-0.6 3.9,4.4 -6.2,4.3 -3.9,0.7 -2.3,-3.9 -13.6,-2.7 -6.8,-2.7 -7.8,2.6 -7.4,-0.2 v 3.8 l 3.4,6.4 2.2,4.8 7.3,4.2 2.2,4.2 3.5,-0.2 4.4,-3.2 1.5,2.9 z"><title>Sevnica</title></path>
<path id="sezana" fill="#cdff00" d="m 108,518.2 7,3.9 5.2,5.3 5.4,-0.5 1,2.6 6.1,1.1 5.1,3.7 3.6,8 5.1,4.1 2.3,3.4 v 9.3 l 3.5,2.8 4.5,7.3 6.7,6.1 6.3,4.2 6.8,-0.6 3.5,1.4 5.5,-1 3.7,-7.6 0.1,-4.9 -2.6,-3.8 2.2,-4.7 4.5,-6.4 3.8,-2 -5.9,-5.5 3,-5.6 -4.6,-3.5 8.4,-4.4 3.4,-3.6 -0.1,-5 1.2,-1.5 -4.8,-4.4 -4.5,-1 -4.7,-3.9 -1.9,0.5 -6,-2.5 -2,-3.3 -5.9,-4.9 -4,3.2 -5.3,-0.5 -1.9,-1.9 -3.7,3.6 -9,3.5 -11.4,0.1 -4.4,2.3 -7.1,1.8 -6.2,-0.9 -1.9,3.7 -4.6,-0.6 z"><title>Sežana</title></path>
<path id="slovenj-gradec" fill="#ffff00" d="m 561.4,147.8 -3.1,0.1 -6.7,3.1 -1.7,-0.7 -4.9,3.1 -3.6,6.7 h -3.6 l -1.5,3.6 -5.6,-6.4 -2,6 v 0.2 l 1.7,2.2 -0.2,6.2 -1.9,6.9 -2.8,-0.2 -2.1,4.5 -7,2.4 -0.4,6.7 -2,1.3 -1.2,5.8 7,1.8 10.2,6.4 3.4,-1 7.9,2.2 4.9,0.3 7.5,3.2 2.8,2.4 0.6,-5.4 7.9,3.7 2.4,3.7 4.2,-5.3 -0.9,-2.3 5.7,-2.9 1.6,-5 -2.4,-5.1 4.3,-0.4 10.5,-15.2 0.7,-5.6 -2.3,-2.8 -3.8,-1.2 -2.6,-2.7 -5.6,0.3 -0.1,-0.5 -5.6,-3.9 1.6,-3.4 -0.6,-4.9 -2.5,-0.8 -8.2,-5.9 z"><title>Slovenj Gradec</title></path>
<path id="slovenska-bistrica" fill="#ffed00" d="m 702,179.7 -2.7,1.1 -9.9,-1.4 -7.7,2.5 -6.9,4.6 -9.8,2.8 -5.3,0.1 -4.8,0.2 -5.6,5.4 -2.9,-1.9 -0.5,-4 -9.9,0.9 0.2,4.8 2.9,2.8 -0.5,4.2 3.6,1.9 4.9,-0.5 3.4,4.8 3.3,2.3 3.5,-2.8 1.4,3.3 5.1,3.2 4.1,0.7 2.8,5.6 2.5,1.1 0.5,4.3 2.4,1.8 4.5,-2.7 3.8,0.5 1.3,4.4 -0.2,4.6 3.3,10.2 1.9,5.1 3,0.9 6.1,-1.1 3,1.4 0.2,6 4.4,1.1 7,-0.4 3.3,1.6 1.3,3.3 5,-2.1 3.5,3.9 3.7,-0.1 3.6,-2.3 -1,-2.1 2.3,-11.4 8.9,2 -0.9,-6.2 2.1,-4.2 -2.6,-2.3 4.1,-2.6 2.3,-4.9 -4.1,-1.9 -2.4,-4.1 5.2,-2.7 -5.3,-3.8 -1.4,-4 -10.4,-2.6 -1.1,-3.3 -12.9,-5.6 -5.7,-6.2 -6.2,-1.6 1.6,-6.5 -3.8,-1.7 z"><title>Slovenska Bistrica</title></path>
<path id="slovenske-konjice" fill="#ffff00" d="m 688.8,244.5 -3.1,2.8 -3,-2 -2.4,1.6 -8,-1.7 0.7,-2.5 -5.5,-0.9 -3.1,-2.2 -1.3,4.9 -4.4,4.6 -2.5,-4.7 -3.4,-0.1 -2.8,3.9 -2.4,8 -1.5,0.4 -2.8,5.5 4.8,4.9 2.9,4.4 5.8,-0.7 16.2,4.1 1.9,2.4 11.7,3.7 4.5,-2 6.3,3.9 7.2,-0.3 2.8,-2.7 -2.4,-2.6 2,-5.5 -2.4,-2.9 0.2,-5.4 -1.8,-6.6 -0.2,-6 -3,-1.4 -6.1,1.1 -3,-0.9 z"><title>Slovenske Konjice</title></path>
<path id="starse" fill="#9aff00" d="m 779.4,193.1 -3.5,-5.5 -3.7,-1.4 -7.6,-9.2 -0.5,1.6 -1.6,6.1 3.2,5.7 -7.3,6.8 v 0.2 l 2.9,5.4 -2,1.6 2.3,5.3 2.3,2.1 3,-2.6 10,3.2 3.8,-5.2 4.7,3.1 -0.5,-4.4 1.6,-4.8 6,-2.4 -2.9,-1 -5.1,-5 z"><title>Starše</title></path>
<path id="sveti-jurij-ob-scavnici" fill="#ffc900" d="m 876.5,134.5 -1.7,3.3 -3.1,-1.1 0.5,-4.7 -2.9,-4.6 -3.7,0.9 -5.4,7.3 -4.7,-1.4 -3.7,2.7 -5.8,-0.2 -2.1,1.3 -0.3,5.5 -2.9,4 1,3.1 4.5,5.9 2.5,5.2 4.4,5.4 v 2.2 l 3.9,3 3.4,-10.4 2.8,-4.3 5.1,-0.1 6.9,1.6 -0.7,-7 1.7,-3.7 4,0.1 -1,-9.7 z"><title>Sveti Jurij ob Ščavnici</title></path>
<path id="sencur" fill="#cdff00" d="m 354.1,277.8 -4.8,-0.7 -7.8,2.5 -3.8,-0.6 -4.3,7.8 1.1,8.6 -2.1,2.9 -0.6,6.3 3,2.5 -1.5,4.5 -3.3,2.5 1.8,4.5 3.1,2.8 -0.5,2.8 5.6,-0.8 3.3,1.6 8.3,-1.6 3.6,-2.2 -1.3,-3.8 -3.7,-1.9 -0.3,-4.5 -3.3,-1.2 0.9,-7.7 -2,-7.8 1,-6.9 2.9,-4.9 z"><title>Šenčur</title></path>
<path id="sentilj" fill="#ffdb00" d="m 783.1,80.3 -5.8,4 -4.6,0.5 -4.9,-1 -4.9,2 -9.4,-1.5 -6.8,-3.8 -8.1,0.6 1.4,6.2 -5.7,1.2 -1.1,4 -3.3,1 0.1,6.3 3.1,2.5 -0.2,2.8 4.1,6.4 2,-1.3 4.5,2 3.1,-2 -0.4,-8.4 5,-1.3 -0.9,-3.9 4.2,-1.2 2.3,4.2 5.1,-3.5 5.5,3 -0.3,3.5 5.2,4.3 -0.6,1.8 6.3,6.9 4.6,-5.8 4.8,-0.5 -3.9,-7.6 3.7,-3.9 1.3,-3.5 -0.9,-5.9 1.8,-3.5 -1.5,0.8 z"><title>Šentilj</title></path>
<path id="sentjernej" fill="#ff6300" d="m 659,509.9 -1,-5.2 -6.7,-4.2 -2,-5.5 2.5,-6.5 -5.2,-6.4 9.9,-5 -4.5,-1 -1.8,-4.3 0.5,-4.6 -4.6,-2.7 -5.2,1.5 -5.9,7 -5.4,2.3 -3.8,-1.9 -4.1,0.9 -8.1,4.6 -0.3,2.8 -3.2,2.2 2,3.2 0.2,5.6 2.2,5.2 3.9,0.4 0.8,4.5 2.2,3.7 6.6,5.5 2.5,13.2 4.9,-1.3 6.3,-4.7 9.5,-3 6.1,-5.9 z"><title>Šentjernej</title></path>
<path id="sentjur" fill="#ffff00" d="m 697.4,282.8 -6.3,-3.9 -4.5,2 -11.7,-3.7 -1.9,-2.4 -16.2,-4.1 -5.8,0.7 -2.9,-4.4 -3,4.6 5.5,2.7 -4.3,5.7 -3.4,-0.3 -1.3,4.9 1.7,3.6 -1.3,2.7 -0.4,5.3 -6.7,3.8 0.8,5.9 8.6,2.2 0.3,4.9 -2.1,3.1 0.4,3.6 -1.9,3 2,5 3.9,3.3 0.5,7.9 -4.5,1.3 v 4.2 l 2.6,4.9 2,-3.7 h 3.2 l 3.7,-4.4 4.5,-0.9 1.2,4.1 4,2.6 5.2,1.5 -0.7,7.7 -2.1,1.8 -5,-2 -5.1,2.5 -1.7,3.1 -5.2,-1.1 -2.3,1.4 2.3,4.1 -1.2,6.7 -4.3,5.8 4,2.2 3.2,-2 4.2,2.8 4.8,0.8 5.9,0.2 2.9,-2 5.4,1.4 8.8,-1.6 1.4,-3.9 -3.9,-3 -3.6,-5.8 0.5,-3.8 2.7,-4.7 3,0.1 2.8,3.8 4,-1.6 3,-9.7 5.1,-1 0.8,-5.4 2.4,-2.6 0.2,-3.6 -4.2,-3 -4.6,0.7 -1,2.4 -5.1,0.9 -4.5,-3 -2,-3 -0.1,-7.1 -2.9,-1.9 -6.2,-10.5 -2.1,-7.1 9.6,-9 6.4,-2 3.9,-2.7 z"><title>Šentjur</title></path>
<path id="skocjan" fill="#000000" d="m 602,447.6 4.2,5.8 2.7,0.4 2.4,3.3 5,0.1 -0.2,8.2 1.6,3.6 5.7,-1.2 -1.7,6.5 4.1,-0.9 3.8,1.9 5.4,-2.3 5.9,-7 -4.8,-2.3 3.4,-4 -0.8,-13.3 3,-4.1 -5.9,-3.6 -0.8,-6.6 -3,1.3 -5.5,-1.9 -3.2,2.8 -5,-2.4 -3.9,8.3 -4.2,-4.4 -2.9,2 -3.2,6 -3.4,2.8 z"><title>Škocjan</title></path>
<path id="skofja-loka" fill="#cdff00" d="m 331.2,339.3 -5.1,-12 -4.1,0.6 -3.8,-3.4 -5.1,0.6 -4.8,-5.6 -8.9,-0.3 -2.6,-5.5 -3.9,2.9 -4,-5.7 4.3,-2.2 1.1,-3.6 -4.2,-3.7 -6.9,-1.3 -1.1,3.7 -5.6,2.4 1.7,5.1 -0.9,6.9 -7.9,-0.5 -2.4,2 -3.1,-0.8 -6,5.5 -2.3,0.6 -0.3,5.3 7.3,-0.9 3,1.1 3.2,-2 7.9,4.8 -4.4,7.5 -4.5,4.2 2.5,8 -3.5,5.2 7.5,5.5 1.7,4.3 7.9,-0.7 1.6,-3.9 2.7,-0.7 12,3.2 3.7,-0.5 4.9,2.7 3.3,-4 -0.2,-3.2 -2.7,-2.3 0.4,-5.4 6.1,-3.7 1.3,-3.6 4,-2.9 5.8,-0.2 -0.1,-3.6 z"><title>Škofja Loka</title></path>
<path id="skofljica" fill="#cdff00" d="m 398.4,455.9 -1.8,-2.1 -2.4,-7.2 1.7,-5 -1.4,-17 -1.8,-3.9 6.8,-2.8 2.9,-3 -5.4,-5 -2.2,-0.6 -2.7,-5 -6.5,2.8 -3.8,0.2 -4.1,2.1 -1.7,8.3 5.2,3.1 3.1,5.6 -2.3,2.8 2.8,4 v 11.4 l -3.3,2.6 0.4,4.5 4.8,-0.4 -0.9,4.9 1.6,2.6 5.5,2.4 z"><title>Škofljica</title></path>
<path id="smarje-pri-jelsah" fill="#cdff00" d="m 704.6,282.5 -7.2,0.3 -8.6,11 -3.9,2.7 -6.4,2 -9.6,9 2.1,7.1 6.2,10.5 2.9,1.9 0.1,7.1 2,3 4.5,3 5.1,-0.9 1,-2.4 4.6,-0.7 4.2,3 8.2,-2.8 0.2,-7.4 3.4,-2.7 1.6,-3.9 8.3,-5.7 -3.8,-5.7 2.2,-3.7 -4.4,-0.6 -2.3,-2.4 -1.5,-9 -3.9,-4.4 -0.3,-5.6 z"><title>Šmarje pri Jelšah</title></path>
<path id="smartno-ob-paki" fill="#ffc900" d="m 548.5,249.7 -5.1,-2.2 -8.9,-1.8 -7.8,-8.4 -0.1,11.3 3.7,8 9.3,5.9 3.3,5 0.3,2.8 2.1,-1.2 1.2,-5.4 v -8 z"><title>Šmartno ob Paki</title></path>
<path id="sostanj" fill="#ffdb00" d="m 556.5,214.6 -2.8,-2.4 -7.5,-3.2 -4.9,-0.3 -7.9,-2.2 -3.4,1 -10.2,-6.4 -7,-1.8 2.4,5.5 -5.3,1.4 -3,4 -8,-0.1 -5.3,6 h -4.5 l 6,2.7 -1.4,6.3 1.8,4.6 2.1,0.8 5.3,-6 5,-0.7 7.1,7.3 2.4,-1.1 8.8,-0.3 0.5,7.6 7.8,8.4 8.9,1.8 5.1,2.2 0.9,-0.5 0.6,-11.2 4,-1.1 2.8,-16.6 z"><title>Šoštanj</title></path>
<path id="store" fill="#9aff00" d="m 635.7,305.9 -0.6,-1.6 -8.1,4.7 -2.8,-0.5 -1.4,7.5 2.9,3.3 1.3,4 -3.8,1.2 1.5,3 -1.4,3.7 -5.1,1.2 0.8,2.8 5.1,1.6 7.4,-1.7 3.8,-4.3 7.7,-3.1 -2,-5 1.9,-3 -0.4,-3.6 2.1,-3.1 -0.3,-4.9 z"><title>Štore</title></path>
<path id="tolmin" fill="#9aff00" d="m 116.8,281.2 -5.8,-0.2 -5.8,4.6 -4.1,6.1 -1.4,6.2 2.2,2.2 1.6,5 -2.5,1.8 -5.2,-1.9 -3.3,0.5 -5.7,5.2 -4.4,-1.1 -3.4,11.7 4.8,2 7.1,2.8 3.6,5.6 -0.9,1.7 3.2,-0.3 3.9,8.1 2.1,7.8 3.3,5.5 3.2,-0.4 9.7,7.9 4.7,0.7 2.3,4 2.3,0.5 3.1,-4.5 3.1,1.2 4.4,-0.7 2,5.3 -1.3,4 4.4,4.6 -3.5,2.5 -0.2,10 5,6.9 2.9,6.5 6,3 5.9,4.9 0.1,-9.4 2.6,-6.2 -0.7,-5.5 -3.3,-0.1 -0.1,-7.2 6.7,3.9 1,-5.1 2.9,1.1 3.3,-5.6 -1.8,-5.2 0.6,-10.7 -6.2,-8.3 2.8,-3.5 -0.9,-6.2 7.8,-6.6 1.7,-3.7 11.5,-2.8 6.3,0.5 4.5,-7.5 2,-6.7 3.6,-1.1 1.1,-3.7 -0.7,-5.7 -4.3,-3.4 -3.8,-0.1 -5.1,1.8 -2.3,-1.8 -3.8,2.6 -11.1,1.2 -3.2,-0.6 -3.8,2.1 h -5 l -6.5,-1.7 -7.1,-4.3 h -6.8 l -2.1,-1 -13.2,-9.8 -3.8,-0.1 -1.8,-4.4 z"><title>Tolmin</title></path>
<path id="trbovlje" fill="#ffdb00" d="m 541.9,320.7 -1.2,1.7 -9.1,1.3 -2.4,-2.2 -0.8,2.3 4.3,3.7 -2.8,3.4 -4.6,3.2 4.6,2.6 2.5,-0.4 0.3,6 4.5,8.4 0.8,3.9 -7.3,6.1 -3.7,0.6 -0.2,0.6 2.2,2 13.7,5.8 3.2,-2.1 4.2,5.8 4.4,3.7 5.8,-1.2 0.4,-6.6 -1.9,-2.3 -0.6,-4.8 -6,-2.1 -4.4,-7.3 -1.4,-6.5 3.9,-4.2 4.2,-2.4 -1.5,-3.6 1.4,-3.5 8.7,-2.5 -0.8,-2.9 0.2,-1.8 -2.9,-1.6 -7.4,3.5 -8.7,-2.6 z"><title>Trbovlje</title></path>
<path id="trebnje" fill="#ffdb00" d="m 537.3,486.3 -0.7,-10.4 5,-3.3 3,0.4 0.6,-4.7 8,0.5 0.6,-5.3 5,-2.5 2.5,-1.1 v -8 l -4.8,1.9 -3,-2.5 -1.6,-3.9 -4.9,0.8 -1.3,1.9 -4.7,-4.3 -4.3,-0.5 -0.1,-3.8 -3.6,-1.2 -0.1,-4.3 -3.2,-0.9 -2.7,-4.6 -4.2,-3.2 -5.3,-0.5 -1.2,-2 -5.4,-1.6 -3.1,2 0.2,4.4 -4.8,0.9 -4.6,4.6 -3.9,2.3 -5,1 0.8,5.2 -2.9,3.9 1.9,8.7 -6.7,10.1 4.5,7.6 4.6,-0.1 6.5,1.5 2.6,2.3 5,-4.1 2.8,-0.2 3.3,5.8 -0.4,3 2.1,4.5 7.4,1.9 5.5,-4.9 7.1,4.9 z"><title>Trebnje</title></path>
<path id="trzic" fill="#cdff00" d="m 346.4,214.4 -5.7,-10.4 -7.4,0.4 -7.4,2.7 -11.6,0.9 -5.5,2.9 -5.9,0.2 -2.2,-3.6 -5.9,-2.5 -8.7,2.1 -6.2,3.2 -1.3,4.8 3.2,0.2 2.6,2.7 -2.4,2.9 2.3,3.1 -1.1,6.1 0.6,12.2 -3.2,6.3 3,7.4 5.4,5.6 8.8,1.1 4.1,-1 6.8,2.7 0.2,-5.8 1.4,-2.3 4.9,-2.3 2.5,-4.9 10.2,1.3 6.3,-1.4 1.1,-3.7 -1.7,-8.1 4,-1.4 1.6,-2.6 -0.9,-4.2 4.1,-3.7 0.2,-5.2 z"><title>Tržič</title></path>
<path id="turnisce" fill="#ff8400" d="m 952.7,110.7 -4.7,-1.9 -4.4,5.4 -5.8,2.6 2.9,5.3 10,2.2 -2.4,7.1 5.9,6.3 3.4,0.2 4,-8.1 9.3,4.8 1.7,-3.7 -5.6,-5.5 -4,-1.1 -2.8,-5.8 z"><title>Turnišče</title></path>
<path id="velenje" fill="#ffdb00" d="m 567.4,216.6 -2.4,-3.7 -7.9,-3.7 -0.6,5.4 0.3,5.7 -2.8,16.6 -4,1.1 -0.6,11.2 2.9,0.8 0.9,4 9.5,5.2 1.2,6.1 2.8,0.4 2.2,-4.5 3.2,-0.6 1.2,-4.3 5.5,-1.3 7.7,8.9 3.9,-3.4 4,-8.2 -1.5,-5.2 -2.7,-4.4 -1.9,-7.1 0.2,-3.8 -5,-1.9 2.1,-5.7 v -3.7 l -4.2,0.1 -5.8,3.7 -7.8,-5.3 z"><title>Velenje</title></path>
<path id="velike-lasce" fill="#ffff00" d="m 392.9,461.2 1.8,3.8 -2.2,8 -5.8,3.4 -4.5,-3.2 -3.8,-0.8 -1.5,-3.1 -3,-0.5 -6.9,-3.6 -4.8,3 4.1,7.6 -2.6,4 3.3,7 2.8,4.5 7,8.1 4.4,1.8 1,6 4,3.4 0.8,-2 5.9,0.8 3.1,-3.5 3.8,0.7 2.9,-1.8 5,1.3 6.5,-1 4.9,-2.7 3.8,-5.7 3.4,1 0.3,-1.8 -6,-7.7 -7.9,-5.2 -3.6,1.1 -0.2,-3.9 2.2,-1.6 -0.4,-7 -2.6,-1 -1.4,-7.4 -8.3,-7.3 z"><title>Velike Lašče</title></path>
<path id="videm" fill="#ffed00" d="m 818.2,227.3 -6.3,0.9 -4,4.1 -7.3,0.2 -5.6,-5.2 -3.1,4.1 0.3,8.2 -0.8,5.8 0.5,3.3 -1.7,3.8 -2.6,1.1 -0.4,5.2 -2.8,3.4 8.9,5.9 1.6,-7.6 -0.1,-3.8 2.7,-7.7 3.4,1.8 3.3,-2.2 7.2,-0.9 1.4,2.3 4.8,0.3 4.2,3.9 -1.4,6.6 0.1,4.9 3,5.2 0.5,6.5 2.1,1.8 14.8,-5.4 2.3,-4.6 -0.9,-7.4 -3.6,-4.5 2.2,-5.4 -3.9,-2.4 1.7,-5.8 -4.8,-3.4 -5.4,0.3 0.3,-7.9 -6.3,-0.7 z"><title>Videm</title></path>
<path id="vipava" fill="#66ff00" d="m 167.7,493.1 2.2,5.5 3,2.7 5.9,4.9 2,3.3 6,2.5 1.9,-0.5 4.7,3.9 4.5,1 4.8,4.4 -1.2,1.5 7.4,-3.1 7.7,5.4 3.6,-9.8 0.8,-7.9 4.6,-6.3 -6.7,-11.5 -4.9,0.2 -4.5,-4.2 -1.2,-5.8 1.9,-2.7 -3.6,-4.4 -9,-3.2 -5.9,0.7 -3.1,5.2 -2,-0.6 -9.7,9.3 -8.5,3.8 z"><title>Vipava</title></path>
<path id="vitanje" fill="#ffff00" d="m 631.7,202.2 -8.7,0.2 -3.9,2.1 -4.1,0.2 -4.4,7.8 -0.2,6.2 -8.8,11.5 4.7,2.7 3.9,7.8 3.6,1.7 10.4,-1.4 9.2,1.3 1.1,-3.1 5.5,-5.9 3.2,-1.3 -0.8,-8.8 -9.3,-0.3 1.3,-7.4 -3.5,-5.2 2.6,-7 z"><title>Vitanje</title></path>
<path id="vodice" fill="#9aff00" d="m 365.4,319.3 -11.5,-1.9 1.3,3.8 -3.6,2.2 -0.6,7.2 2.7,5.9 -0.2,3.8 1.8,6.7 4.2,2 1.4,-2 8.7,-1.3 2.4,-0.6 1.5,-5 5.2,-2.1 -1.2,-5.5 -4.6,-1.2 -0.1,-4.2 z"><title>Vodice</title></path>
<path id="vojnik" fill="#9aff00" d="m 633.4,242.3 -9.2,-1.3 -10.4,1.4 -3.3,3.8 -0.4,5.2 -5.9,12.1 5.2,3.8 5.1,1.7 2.2,3.3 1,8.7 3.8,2.6 6.4,1.9 3.1,-2.7 2.4,2.8 7.6,3.7 1,1.6 1.3,-2.7 -1.7,-3.6 1.3,-4.9 3.4,0.3 4.3,-5.7 -5.5,-2.7 3,-4.6 -4.8,-4.9 2.8,-5.5 -2.3,-0.2 -7.6,-5.4 -0.5,-8.1 z"><title>Vojnik</title></path>
<path id="vrhnika" fill="#ffff00" d="m 264.9,401.7 -0.8,8.5 3.2,-1.5 4.7,0.7 7.4,5.7 -7.3,5.5 -0.1,4.6 3.1,3.9 -5.5,3.6 3.3,4.1 7.7,1.1 5,3.6 1.4,3.7 11.2,12.5 2.3,8.4 3.4,-3 h 4.1 l 5.7,6.5 4.4,-0.4 0.4,4.3 3.1,0.1 2.2,-3.1 -4.3,-6.6 -0.9,-4.6 -3.2,-4.5 -4,-15.5 3,-8.4 7.8,-1.5 5.1,-4 -4.3,-10.1 -4.4,-0.9 -4.1,-3 -2.3,-3.5 -3.6,-0.4 -8.3,4.3 -7.1,0.1 0.5,5.1 -4.6,-3.1 -6.9,-1.1 -3.3,-4 4,-3.8 -1.4,-2.6 -9,0.8 -4.6,-2 z"><title>Vrhnika</title></path>
<path id="vuzenica" fill="#ffff00" d="m 592.2,166 -4.3,1.6 -2.4,-1.6 -0.2,-4.3 -2,-1.4 1.7,-4.9 3.2,-2 1.7,-4.8 8.4,-13.8 -3,-5.3 -3.3,-0.3 -5,-5.7 -3.9,2.9 -0.7,2.6 -5.6,5.5 -7.7,-0.9 -5.6,0.4 -2,4.9 1.3,8.1 -1.4,0.8 v 1.2 l 8.2,5.9 2.5,0.8 0.6,4.9 -1.6,3.4 5.6,3.9 0.1,0.5 5.6,-0.3 2.6,2.7 3.8,1.2 z"><title>Vuzenica</title></path>
<path id="zagorje-ob-savi" fill="#cdff00" d="m 526.8,361.9 2.1,5.5 -1.1,3.9 -3.9,1.3 1.5,5.7 -1.9,7.9 2.8,2.5 6.5,1.1 7.8,-4.9 8.8,-2.4 5.1,-5.4 -4.4,-3.7 -4.2,-5.8 -3.2,2.1 -13.7,-5.8 z m -32.2,-44.9 1.4,8.1 -4.9,6.4 -5.4,-1.5 -3.6,2.6 -5.3,1.3 h -6.2 l 0.7,5 2.7,4.6 2.6,1.5 -2.9,4.6 0.4,4.3 5.7,-0.3 2.2,-1.6 3.9,1.2 6.2,-0.4 1,1.3 -0.2,10.3 0.6,4.8 2.3,1.6 3.5,-1.3 8.3,1 5.7,-2.3 2.2,-4.2 8.7,-5.6 2.8,2.9 3.7,-0.6 7.3,-6.1 -0.8,-3.9 -4.5,-8.4 -0.3,-6 -2.5,0.4 -4.6,-2.6 4.6,-3.2 2.8,-3.4 -4.3,-3.7 0.8,-2.3 -5.1,0.6 -2.3,-1.3 -4.3,1.5 -7.4,3.4 -4.9,0.5 -3.2,-4.4 -3.9,-1.5 -0.2,-4.3 z"><title>Zagorje ob Savi</title></path>
<path id="zavrc" fill="#7E7E7E" d="m 870.6,230.2 -4.1,-1.3 -6.9,5.5 -0.3,6.4 -1.8,4.1 4.7,4.6 -1,4.1 2.6,2 5.9,0.4 3.1,-3.3 2.7,0.9 2,-3.7 -1.4,-7.4 -3.9,-5.8 -3.5,-2.8 z"><title>Zavrč</title></path>
<path id="zrece" fill="#ffff00" d="m 636,190 -4,0.4 -2.4,-2.4 -1.2,2.8 2.2,5.2 3.6,3.4 -2.5,2.8 1.8,1.1 -2.6,7 3.5,5.2 -1.3,7.4 9.3,0.3 0.8,8.8 -3.2,1.3 -5.5,5.9 -1.1,3.1 2.3,0.6 0.5,8.1 7.6,5.4 2.3,0.2 1.5,-0.4 2.4,-8 2.8,-3.9 3.4,0.1 2.5,4.7 4.4,-4.6 1.3,-4.9 -3.9,-2.7 2.9,-7.9 -4.2,-2.7 4.6,-12.3 -5.1,-3.2 -1.4,-3.3 -3.5,2.8 -3.3,-2.3 -3.4,-4.8 -4.9,0.5 -3.6,-1.9 0.5,-4.2 -2.9,-2.8 z"><title>Zreče</title></path>
<path id="zelezniki" fill="#9aff00" d="m 283.2,300.1 -4,-2.4 -9.6,-0.4 -2.9,-3 -2.7,-7.4 -8,-4.5 -4.5,2.1 -6.4,-3 -7.3,-1 -3.5,2.3 -1.4,19 -4.1,0.5 -7.7,-3 -8.5,-4.2 -11,4.4 -1,2.7 4.3,3.4 0.7,5.7 -1.1,3.7 -3.6,1.1 -2,6.7 -0.8,4.5 1.6,4.7 3.9,2 4.4,-1.7 2.6,1.7 5.1,-1.4 11,3 v 4.3 l 3.6,0.2 1.7,-4.7 8.5,-3.2 4.7,-0.3 2.1,-1.8 5.1,1.3 2.9,-1.1 0.3,-5.3 2.3,-0.6 6,-5.5 3.1,0.8 2.4,-2 7.9,0.5 0.9,-6.9 -1.7,-5.1 5.6,-2.4 z"><title>Železniki</title></path>
<path id="ziri" fill="#33ff00" d="m 263.2,395.9 -4.2,-1.5 -2.4,-4.2 -5.5,-4.7 -1.5,-4.2 -5.8,-3 -5.3,1.1 -2.5,-1.3 -5.4,0.3 -7.6,-4 -4.5,-0.9 -4.5,1 -1.7,4.8 0.4,0.3 4.7,-1.4 2.7,2 0.4,4.1 3.7,4 3.1,1 1.8,5.6 2.7,3 2.8,-1.6 2.2,4.3 -0.7,2.6 5,6.6 7.2,1.2 5.4,-7.3 6.1,-0.9 0.2,-3.2 z"><title>Žiri</title></path>
<path id="benedikt" fill="#ffed00" d="m 827.4,132.9 -3.8,-5.4 0.1,-3.8 -2,-2.8 5.3,-2.3 4,-4.4 -13.4,-2.7 -2.4,-1.7 -3.7,-0.5 -2.9,3.6 0.8,3.9 -4.9,4.4 v 4.4 l 4.1,0.4 1.4,4.7 7.4,5.9 7.1,-0.6 z"><title>Benedikt</title></path>
<path id="bistrica-ob-sotli" fill="#7E7E7E" d="m 761.4,387.7 -8.7,-3.9 -4.2,-4 -4,-1.2 -6.3,-6.3 -5.2,1.9 -1.8,-1.2 -4.6,6.3 -4.8,1.7 0.8,9.7 1.6,3.8 5.6,2.6 4.4,-0.4 3.4,-2.8 1.7,5 4,-6.7 4.7,-1.3 4.8,1 2.2,-2.5 4.6,1 z"><title>Bistrica ob Sotli</title></path>
<path id="bloke" fill="#ffdb00" d="m 386.2,510.6 -4,-3.4 -1,-6 -4.4,-1.8 -7,-8.1 -2.8,-4.5 -2.6,2.4 -4.9,0.6 0.2,3.3 -4.9,1.9 -6,5.4 0.3,4.9 -3.3,4.2 3.1,1.8 1.1,5.4 5.7,4 5.3,1.2 3.5,4.8 -6.1,3.6 6.2,4.2 2.6,4.5 3.2,-2 3.4,1.1 3.6,-3.3 3.4,-2 4.1,4.7 5.8,-1.9 -4.2,-7 1.7,-5.2 -0.6,-6.7 -4.7,-0.2 -2.8,-3.1 z"><title>Bloke</title></path>
<path id="braslovce" fill="#9aff00" d="m 543.2,270.3 -0.3,-2.8 -3.3,-5 -9.3,-5.9 -5.4,3.3 -1.4,3.1 0.6,3.8 -3.3,1.7 -3.1,4.4 0.9,3.9 -2.2,5.6 2.5,0.5 4.5,6 7.5,2.6 6.3,3 1,4.5 2.4,0.4 1.8,7.5 5.1,-2.3 2.4,-6.6 2.7,-0.7 0.6,-3.6 3.9,-1.7 -4.1,-4 -5.5,-8.4 z"><title>Braslovče</title></path>
<path id="cankova" fill="#ffa500" d="m 870.9,58.2 -5.4,-2.1 -6.4,1.4 -4.1,-6.1 v -2.5 l -6.2,-0.6 0.2,8.5 -1.6,2.4 2.7,9.7 5.1,7.3 6.6,1.8 v 5.5 l 3.4,4.6 3.4,-0.2 3.3,-4.5 -4.9,-8.8 4.4,-3.6 -0.4,-3.2 1.9,-3.7 z"><title>Cankova</title></path>
<path id="cerkvenjak" fill="#ffff00" d="m 843.9,138 -2.5,-1.3 -7.1,-0.3 -1.4,2.8 -3.4,-0.2 -8,7.1 1.1,6.6 2.6,7.7 1.6,-0.6 2.9,-2.1 3,1.3 2.2,4.8 4.2,-3.2 3.8,-0.2 3.3,-3.9 -4.5,-5.9 -1,-3.1 2.9,-4 z"><title>Cerkvenjak</title></path>
<path id="dobje" fill="#00ff00" d="m 649.5,360.5 5.2,1.1 1.7,-3.1 5.1,-2.5 5,2 2.1,-1.8 0.7,-7.7 -5.2,-1.5 -4,-2.6 -1.2,-4.1 -4.5,0.9 -3.7,4.4 h -3.2 l -2,3.7 0.6,3.9 z"><title>Dobje</title></path>
<path id="dobrna" fill="#ffed00" d="m 601.6,230.2 -13.1,1.6 -0.2,3.8 1.9,7.1 2.7,4.4 1.5,5.2 -4,8.2 9.4,4.7 4.4,-1.7 5.9,-12.1 0.4,-5.2 3.3,-3.8 -3.6,-1.7 -3.9,-7.8 z"><title>Dobrna</title></path>
<path id="dobrovnik" fill="#7E7E7E" d="m 967,92.1 -5.5,-2.9 -3.5,2.7 -2.8,5.3 -1.2,7.9 -3,1.3 1.7,4.3 7.5,7.8 2.8,5.8 4,1.1 3.3,-5.5 -1.2,-1.7 3.4,-3.9 1.7,1.6 5,-2.8 -1.6,-6.6 2.6,-4.6 -3.9,-0.1 -7.9,-6.3 z"><title>Dobrovnik/Dobronak</title></path>
<path id="dolenjske-toplice" fill="#ffed00" d="m 563.1,538.7 -6.9,-4 -5,-4.6 1.7,-2.5 -7.8,-9.1 -0.5,-4.8 -5.3,1.4 -2.9,-5 -8.1,-0.8 -7.5,12.8 1.2,7.2 -2.6,7.7 -3,1.3 -0.6,4.3 0.5,8 5,3.1 2.6,4.8 7.7,4.6 -0.3,9.5 2.1,7.9 3,2.5 3.8,-5.6 -3.3,-3.4 1.8,-3.7 5.5,-2.9 1.7,-8.2 2.7,-2.5 4.3,-0.5 7.4,2.2 0.1,-4.8 3.3,-0.6 3,-7.2 -3.9,-4 z"><title>Dolenjske Toplice</title></path>
<path id="grad" fill="#cdff00" d="m 894.6,22.9 -4,1.8 -2.7,-1.3 -6.3,-0.2 -6.1,8 -4.3,-0.9 0.1,4.5 -1.5,5.8 -1,12.4 4.5,1.8 1.5,-3.2 11.3,4.5 3.6,-2.2 -0.2,-8 4.6,-2.2 3,-8.3 -1.6,-2.5 2.2,-8.9 z"><title>Grad</title></path>
<path id="hajdina" fill="#ff8400" d="m 807.9,232.3 1.6,-2.6 -1.7,-3.1 -2.9,1.8 -2.2,-3.3 -0.4,-10.7 -1.1,-3.7 -7.1,-10.9 -1.6,-1.1 -6,2.4 -1.6,4.8 0.5,4.4 1.9,5.7 2.3,0.6 0.1,5 2.8,0.7 2.5,5 5.6,5.2 z"><title>Hajdina</title></path>
<path id="hoce-slivnica" fill="#ffb700" d="m 750.9,171.6 -1.4,-1.5 -6.6,2.7 -7.1,1.5 -8.9,-2.3 -0.7,-3.9 -5.3,2.4 -5.4,0.8 -5.6,2.7 -5.9,2.1 -2,3.6 1.5,6.4 2.6,-1.4 4.5,1.1 7.8,5.5 6,-3.7 3.1,4.5 4.2,0.3 6.3,5.5 9.4,-2.2 3.2,-1.4 5.3,0.5 2.5,2.6 v -0.2 l -5.2,-9.2 -4.5,-5.6 5.4,-1.8 z"><title>Hoče - Slivnica</title></path>
<path id="hodos" fill="#000000" d="m 949,4.8 -2,3.7 4.1,7.2 -2.4,1.4 4.8,7.4 -1.8,6.2 -3,2.6 0.1,3.3 5.2,0.9 8.8,-3 2.6,-17.4 -2.4,-2.7 -3.6,0.8 -3.5,-5.5 -3.3,-0.5 z"><title>Hodoš</title></path>
<path id="horjul" fill="#7E7E7E" d="m 312.2,407.9 1.1,-6.1 -1.1,-5.6 -4.1,-3.8 -5.4,1.7 -9.7,-3.2 -8.6,4.1 -4.7,4.3 1.8,3.1 1.4,2.6 -4,3.8 3.3,4 6.9,1.1 4.6,3.1 -0.5,-5.1 7.1,-0.1 8.3,-4.3 z"><title>Horjul</title></path>
<path id="jezersko" fill="#00ff00" d="m 386.3,238.4 -2.9,-2.8 -1.4,-7.6 -3.1,-4.2 -0.9,-3.9 -2.4,-1.3 -3.9,-5.9 -4.8,1.5 -4.2,5.2 -8.8,-4.4 -7.5,-0.6 -3.8,5.7 -0.2,5.2 -4.1,3.7 0.9,4.2 -1.6,2.6 -4,1.4 1.7,8.1 -1.1,3.7 4.4,2.1 3.4,-0.8 2.5,-8.9 12.7,1.6 5.7,1.9 4.3,-1.5 4.1,2.8 2.1,-2.2 3.3,1.6 1.4,-2.5 7.1,-0.5 1.1,-1.9 z"><title>Jezersko</title></path>
<path id="komenda" fill="#9aff00" d="m 382.8,299.6 -5.3,8.1 -3.8,3.8 -3.9,0.4 -4.4,7.4 7.4,7.8 0.1,4.2 4.6,1.2 4.5,-4 10,-7 -5,-5.9 0.2,-6.4 -2,-0.7 z"><title>Komenda</title></path>
<path id="kostel" fill="#00ff00" d="m 515.3,640.8 -0.1,-2.9 -8.4,-7.7 -6.8,1.4 -0.9,2.3 -4.8,0.5 -6.1,-1.7 -5.8,-5.2 -6.8,2.3 0.8,4.7 -3.2,8.7 -6.3,1.7 -2.1,-5.6 -3.6,-3.3 -1.4,8.5 -1.4,1 2.8,-1 2.4,3.1 0.7,8.1 3.6,3.6 0.2,5.1 5.6,-0.2 11.9,-2.9 1.4,-2.5 4.5,-1.7 4.4,0.2 2.9,-2.4 1.6,-10.6 -1,-6.8 2.6,-4.6 3.7,-0.6 z"><title>Kostel</title></path>
<path id="krizevci" fill="#cdff00" d="m 887.7,127.5 -5.9,0.4 -5.3,6.6 2.7,4.3 1,9.7 -4,-0.1 -1.7,3.7 0.7,7 6.1,-0.8 2.4,4.1 4,2.2 5.4,-1.3 4.9,2.8 1.1,-1.9 5.4,-0.4 1.9,-3.7 0.9,-6.1 -1.9,-2.2 1.9,-3.3 -3.4,-1.7 -3.3,-7.5 -5.6,-3.9 -1,-5.8 -4.9,0.9 z"><title>Križevci</title></path>
<path id="lovrenc-na-pohorju" fill="#cdff00" d="m 671.6,139.5 -1.5,1.6 0.3,5.2 -5.4,1.8 -7.2,-8.4 -8.8,-1.5 -3.2,2.2 2.2,5 -0.2,3.2 -7.9,4 -1.3,12 -5.4,8.3 -3.9,5.7 -0.6,4.2 0.9,5.2 2.4,2.4 4,-0.4 9.9,-0.9 0.5,4 2.9,1.9 5.6,-5.4 4.8,-0.2 -1.2,-4.4 1.9,-5.2 -0.1,-4 3.6,-0.5 5,-3.9 -0.6,-3.5 5.6,-6.7 -1.9,-4.7 2.8,-2.4 1.2,-4.9 -0.6,-5.6 z"><title>Lovrenc na Pohorju</title></path>
<path id="markovci" fill="#ffff00" d="m 843.8,217.2 -10.7,-1.5 -2.1,4.2 -7.8,2.7 -5,4.7 4.3,4.7 6.3,0.7 -0.3,7.9 5.4,-0.3 4.8,3.4 7.8,-1.6 3.5,-2.4 -3.6,-9.1 0.4,-3.7 z"><title>Markovci</title></path>
<path id="miklavz-na-dravskem-polju" fill="#cdff00" d="m 764.1,178.6 -1.9,-2.2 -5.8,-1.8 -1.2,-4.3 -4.3,1.3 3.2,9 -5.4,1.8 4.5,5.6 5.2,9.2 7.3,-6.8 -3.2,-5.7 z"><title>Miklavž na Dravskem polju</title></path>
<path id="mirna-pec" fill="#ffed00" d="m 558.8,461 -5,2.5 -0.6,5.3 -8,-0.5 -0.6,4.7 -3,-0.4 -5,3.3 0.7,10.4 2.1,0.1 2.9,7.9 5.8,0.6 6.6,7.1 3,-4.1 5,-1.7 -0.2,-4.2 2.5,-4.8 3.9,-3.1 2,-4.2 -0.8,-4.6 2,-3.6 -6.1,-2.6 -7.4,-6.4 z"><title>Mirna Peč</title></path>
<path id="oplotnica" fill="#cdff00" d="m 688.8,244.5 -3.3,-10.2 0.2,-4.6 -1.3,-4.4 -3.8,-0.5 -4.5,2.7 -2.4,-1.8 -0.5,-4.3 -2.5,-1.1 -2.8,-5.6 -4.1,-0.7 -4.6,12.3 4.2,2.7 -2.9,7.9 3.9,2.7 3.1,2.2 5.5,0.9 -0.7,2.5 8,1.7 2.4,-1.6 3,2 z"><title>Oplotnica</title></path>
<path id="podlehnik" fill="#ffff00" d="m 824,277.4 -0.5,-6.5 -3,-5.2 -0.1,-4.9 1.4,-6.6 -4.2,-3.9 -4.8,-0.3 -1.4,-2.3 -7.2,0.9 -3.3,2.2 -3.4,-1.8 -2.7,7.7 0.1,3.8 -1.6,7.6 5.5,6.1 2.1,5.5 5.7,0.3 2.4,4 z"><title>Podlehnik</title></path>
<path id="polzela" fill="#ffc900" d="m 549.4,249.2 -0.9,0.5 -2,6 v 8 l -1.2,5.4 -2.1,1.2 4.3,9.3 5.5,8.4 4.1,4 2.5,0.9 3.4,-4.4 -3.7,-2.6 4.3,-3.7 2.9,-8.1 0.2,-8.4 -2.8,-0.4 -1.2,-6.1 -9.5,-5.2 -0.9,-4 z"><title>Polzela</title></path>
<path id="prebold" fill="#cdff00" d="m 559.6,292.9 -2.5,-0.9 -3.9,1.7 -0.6,3.6 -2.7,0.7 -2.4,6.6 -5.1,2.3 1,7.7 -1.5,6.1 1.6,4 8.7,2.6 7.4,-3.5 2.9,1.6 6.8,-4.8 -0.7,-9 0.8,-6.1 3.8,-0.6 -0.2,-3.5 -9.2,-3.2 z"><title>Prebold</title></path>
<path id="prevalje" fill="#ffed00" d="m 490.1,125.6 -5.7,3.4 -0.8,5.2 -6.8,7.8 -2.9,6.7 1.1,2 -3.4,5.1 6.6,1 5.1,-2.3 v 5 l 3.8,1.1 -0.6,4.1 2.8,4.3 6.6,5.2 -1.2,4 7.2,0.2 3.9,-1.1 5,-8.5 -2.1,-5.4 -1.4,-8.3 3.1,-2.6 -1.3,-2.6 -3.9,0.9 -2.6,-7.5 -3,-5 -4.8,-0.7 z"><title>Prevalje</title></path>
<path id="razkrizje" fill="#7E7E7E" d="m 954.3,166.8 -4.2,0.2 -5.6,-4.4 h -4.4 l -0.8,-2.6 -2,3.6 -6.2,4.7 0.9,3.1 3.2,0.3 -0.9,6.4 4.7,-2.1 -0.3,-4.6 8.3,-0.7 5.4,1.1 z"><title>Razkrižje</title></path>
<path id="ribnica-na-pohorju" fill="#00ff00" d="m 633.2,172.9 -3.8,0.1 -0.7,-11 2.2,-1.7 -3.2,-5.6 -3.9,2 -1.2,-4.8 -7,-5.9 -2.2,-0.1 -3.4,4 -5.7,1.7 -3.6,5 -3.4,0.3 -5.1,9.1 -3.4,6 2.3,2.8 5.9,2.9 2.6,4.5 4,2.3 6.7,-4.4 9.4,2.5 9,0.2 0.6,-4.2 z"><title>Ribnica na Pohorju</title></path>
<path id="selnica-ob-dravi" fill="#ffc900" d="m 696.5,120.9 -5.8,3.7 -4.5,-3.3 -5.1,4.1 -3.3,-1.5 0.5,-3.4 -2.9,-3.4 0.6,-4.2 -2.3,-1.8 -3.4,1.2 -5.3,-6.1 -3,-1.3 -3.9,0.9 3.2,4 5.1,3.7 1.9,2.7 0.2,6 2.7,3 0.1,3.1 -3.4,4 0.8,6.2 2.9,1 3.8,4.1 0.6,5.6 -2.1,8.5 2.1,4 8.4,0.7 2.5,-3.8 6.6,-2.5 3.9,-4.3 9.8,-2.5 -3.1,-3.3 -0.9,-5.7 2.7,-4.5 -6.6,-2.1 -2.6,-5.7 z"><title>Selnica ob Dravi</title></path>
<path id="sodrazica" fill="#7E7E7E" d="m 386.2,510.6 -6.1,2.8 2.8,3.1 4.7,0.2 0.6,6.7 -1.7,5.2 4.2,7 3.8,0.3 2.5,3 3.3,0.2 3.7,-2.1 7.8,9.3 3.6,-1.3 3.1,-6.1 2.9,-8.8 3.4,-4.9 -3.3,-2.8 -0.2,-3.9 -11.5,-1 -2.1,-2 -10.3,-2.5 -4.5,-3.6 -5.9,-0.8 z"><title>Sodražica</title></path>
<path id="solcava" fill="#00ff00" d="m 447.3,216.4 -2.7,-6.8 -4,-5.3 -3.6,-2.2 -10.2,0.8 -4.8,-1.2 -5.1,2.9 -6.1,0.7 -2.9,1.6 -5.2,-0.3 -9.4,4.9 -1.3,6.2 2,1 -0.4,8.9 -3,5.8 v 2.8 l -4.3,2.2 v 2.3 l 7.4,6 2.5,-2.3 6.2,1 7.6,-3.1 4.4,1.7 h 4.8 l 8.7,-8.9 2.6,2.1 6.3,-4.9 4.2,0.8 2.5,-3.3 -3.3,-6.8 z"><title>Solčava</title></path>
<path id="sveta-ana" fill="#ffff00" d="m 817,100.7 -16.5,-3.7 -1.8,-3.5 -5.2,-2.3 2.3,-2.4 -3.9,-5.6 -2.5,1.7 -1.8,3.5 0.9,5.9 -1.3,3.5 -3.7,3.9 3.9,7.6 4.4,-0.4 1.6,13 6.2,2.7 0.6,3 4.3,-2 v -4.4 l 4.9,-4.4 -0.8,-3.9 2.9,-3.6 3.7,0.5 2.2,-5.7 z"><title>Sveta Ana</title></path>
<path id="sveti-andraz-v-slov-goricah" fill="#7E7E7E" d="m 853.1,167.1 -4.4,-5.4 -2.5,-5.2 -3.3,3.9 -3.8,0.2 -4.2,3.2 -2.2,-4.8 -3,-1.3 -2.9,2.1 -0.2,2.1 1.5,3.6 -1.4,9.8 1.8,5.2 4.3,2.5 v -5.7 l 2.9,-3.5 7.7,-2.8 1.7,-2.8 z"><title>Sveti Andraž v Slovenskih goricah</title></path>
<path id="sempeter-vrtojba" fill="#9aff00" d="m 76.6,458.2 3.2,2.9 10.2,0.6 4.2,-4.9 0.9,-2.8 4.6,0.8 1,-6.5 -3.1,0.8 -2,-3.2 -3.6,1.5 -3.7,-4.2 -3.4,-1.1 -6.2,10.5 z"><title>Šempeter - Vrtojba</title></path>
<path id="tabor" fill="#9aff00" d="m 542.4,306.9 -1.8,-7.5 -2.4,-0.4 -1,-4.5 -6.3,-3 -2,0.7 -0.1,4.8 -5,2.1 -7.9,13 0.1,6.5 1.5,3.7 4.3,-1.5 2.3,1.3 5.1,-0.6 2.4,2.2 9.1,-1.3 1.2,-1.7 1.5,-6.1 z"><title>Tabor</title></path>
<path id="trnovska-vas" fill="#cdff00" d="m 826.6,161.9 -12.2,-8.4 -0.3,2.6 -4.2,4.7 -2.1,0.3 -1,3.7 -4.1,8 v 2.1 l 3.5,3.1 6,0.1 0.5,-3.4 8.7,2.6 5.3,-2 1.4,-9.8 z"><title>Trnovska vas</title></path>
<path id="trzin" fill="#9aff00" d="m 392.1,345.1 -6.1,0.6 -2.7,3.2 -8.6,1.4 -3,1.6 1.3,2.6 8.6,5.2 3.4,-0.4 2.8,2.6 -0.7,-5.5 0.8,-7.5 z"><title>Trzin</title></path>
<path id="velika-polana" fill="#cdff00" d="m 972.6,130.9 -1.7,3.7 -9.3,-4.8 -4,8.1 v 5.6 l 2.5,5.1 -3.2,2.9 4.9,1.4 9.1,-4.3 2.2,-3.1 8.5,-2.3 0.8,-1.9 -7.8,-6.8 z"><title>Velika Polana</title></path>
<path id="verzej" fill="#ffdb00" d="m 899.5,130.3 -5.5,-0.7 1,5.8 5.6,3.9 3.3,7.5 3.4,1.7 8,-2.2 2.3,-4.8 -2.5,-2.8 -9.5,-4.5 z"><title>Veržej</title></path>
<path id="vransko" fill="#9aff00" d="m 516.4,282.4 -6.3,0.3 -3.2,3.4 -5.4,3 0.1,3.2 -8.5,-1.9 1.7,4.8 -5,6.6 0.7,2 6.1,1.1 2.4,5.5 -1.1,5.6 0.2,4.3 3.9,1.5 3.2,4.4 4.9,-0.5 7.4,-3.4 -1.5,-3.7 -0.1,-6.5 7.9,-13 5,-2.1 0.1,-4.8 2,-0.7 -7.5,-2.6 -4.5,-6 z"><title>Vransko</title></path>
<path id="zalec" fill="#ffff00" d="m 590.4,260.5 -3.9,3.4 -7.7,-8.9 -5.5,1.3 -1.2,4.3 -3.2,0.6 -2.2,4.5 -0.2,8.4 -2.9,8.1 -4.3,3.7 3.7,2.6 -3.4,4.4 4.2,5.3 9.2,3.2 0.2,3.5 -3.8,0.6 -0.8,6.1 0.7,9 -6.8,4.8 -0.2,1.8 1.5,0.9 11.4,-2 2.7,-1.3 5.5,2.7 4.3,-1.8 5.5,0.1 2.9,-5.2 0.8,-4.3 -0.6,-5.6 2.6,-6.4 0.6,-5.2 -2,-1.8 -1.4,-9.9 2.7,-6.7 -1.2,-2.8 2.2,-12.7 z"><title>Žalec</title></path>
<path id="zetale" fill="#cdff00" d="m 784.4,262.2 -2.7,4.5 v 0.1 l -0.2,3.9 -2.6,3.3 -6.6,1.9 -1.3,4.3 1.4,2.9 -0.3,5.4 2.2,4.9 3.1,0.6 7.2,-2.3 10,-1.1 7.3,-2.2 6.1,-0.7 1,-3.7 -2.4,-4 -5.7,-0.3 -2.1,-5.5 -5.5,-6.1 z"><title>Žetale</title></path>
<path id="zirovnica" fill="#9aff00" d="m 279.9,210.3 -7,-5.1 -3.5,1.7 -4.1,-1.4 -7.2,4.4 -5.6,-1.8 -2.5,-0.9 -6.9,6.3 -1.3,3 2.1,4.9 -0.7,3.3 -2.2,5 5.8,10.4 5.7,-6.1 5.3,1.6 6.6,-1.7 0.4,-6.2 3.2,-4.3 2.4,-5.6 4.4,-2.5 3.8,-0.2 z"><title>Žirovnica</title></path>
<path id="zuzemberk" fill="#9aff00" d="m 487.3,473.9 2.1,2.1 -0.6,4.5 -8.2,-0.7 -3.9,0.6 2.3,9.3 2.5,0.6 -0.5,11.2 0.8,4 -2.4,3 -5.5,0.1 -5.2,-2.7 -4.5,1.4 -1.7,4.6 0.4,5.6 2.7,7.3 5.6,2.1 5.4,0.1 5.6,-1.4 11,7.4 3.3,-4.4 0.5,-3.5 2.8,-5.3 5.5,-2 4.3,2.5 11.2,1.8 7.5,-12.8 8.1,0.8 2.9,5 5.3,-1.4 6.2,-4.6 3.9,-7.1 -6.6,-7.1 -5.8,-0.6 -2.9,-7.9 -2.1,-0.1 -3.5,2.2 -7.1,-4.9 -5.5,4.9 -7.4,-1.9 -2.1,-4.5 0.4,-3 -3.3,-5.8 -2.8,0.2 -5,4.1 -2.6,-2.3 -6.5,-1.5 z"><title>Žužemberk</title></path>
<path id="smartno-pri-litiji" fill="#33ff00" d="m 510.9,423.2 -0.9,-3.1 -6.3,0.3 -0.8,-4.5 1.6,-4.2 -2.5,-1.8 1.9,-6.6 -2.6,-6.4 2.1,-3.8 -3.3,-1.4 -2.4,-3.3 -4,-1.1 -0.2,-3.1 -6.7,-2.4 -1.5,5 -9.2,1.9 -5,2.1 -2.3,-2.5 -3.9,0.4 -3.5,3.9 -4.3,-3.4 -2.7,0.2 -6.1,-6.8 -3.2,-1.2 0.1,3.9 -6.9,3.6 8.4,9.9 -2.7,3.6 1.8,9.8 3.6,1.9 3.7,-0.9 2.5,-3.6 5.7,-2.5 4.3,4.4 6.6,2.8 2.4,-0.8 4.3,2.1 4,-1.3 -0.1,-4 4.9,-0.4 2.4,6.7 8.8,13.2 4.3,0.7 4.8,-0.9 -0.2,-4.4 z"><title>Šmartno pri Litiji</title></path>
<path id="apace" fill="#ffc900" d="m 839.4,90 -5.5,-1.6 -8.1,-8.1 -8,-3 -4.9,-2.8 -6.8,-1.3 -9.1,0.4 -10.7,3.6 -3.2,3.1 4.8,5.4 1.5,-0.8 2.5,-1.7 3.9,5.6 -2.3,2.4 5.2,2.3 1.8,3.5 16.5,3.7 1.6,1.1 8.7,-1.3 4,-1.7 3.1,-4.5 z"><title>Apače</title></path>
<path id="cirkulane" fill="#cdff00" d="m 859.6,234.4 -5.4,1.3 -4.2,4 -3.5,2.4 -7.8,1.6 -1.7,5.8 3.9,2.4 -2.2,5.4 3.6,4.5 0.9,7.4 1.7,-2.4 8.2,2.3 4.2,-0.9 2.2,-2.4 -0.5,-3.2 4.8,-7 -2.6,-2 1,-4.1 -4.7,-4.6 1.8,-4.1 z"><title>Cirkulane</title></path>
<path id="kostanjevica-na-krki" fill="#cdff00" d="m 650.7,467.2 -0.5,4.6 1.8,4.3 4.5,1 -9.9,5 5.2,6.4 -2.5,6.5 2,5.5 6.7,4.2 1,5.2 6.2,-1.7 12.7,1.4 4.3,-2.2 -1.9,-3.8 0.2,-5.1 2.6,-1.2 v -3.6 l -5.9,-4.7 -2,-6 -4.8,-3 v -2.7 l -3.7,-1.4 0.5,-11.6 -9.6,-0.4 v 1.7 z"><title>Kostanjevica na Krki</title></path>
<path id="makole" fill="#ffed00" d="m 745,250.3 -8.9,-2 -2.3,11.4 1,2.1 3.9,2.8 0.3,7.6 1.8,4.1 -2.8,4.2 -3.6,0.9 1.7,2.7 10.3,0.2 4.8,-2.3 5.6,-9.2 1.7,-6.6 -0.3,-6.9 0.9,-6.9 -3.5,-3.3 -6.3,2.8 z"><title>Makole</title></path>
<path id="mokronog-trebelno" fill="#cdff00" d="m 558.8,461 -0.2,1.7 7.4,6.4 6.1,2.6 6.2,0.7 6.9,2.8 7.1,-4.5 4.2,-3.2 V 464 l 3.1,-3.9 -3,-7.6 5.4,-4.9 -1.3,-1 -7.8,-1.9 -4.7,-3.6 -1,-2.5 -6.8,-5.2 -4.7,-9.9 -3.1,5.1 v 1.7 l -6.2,2.9 -0.7,3.6 -5.7,1.1 1.5,8.3 3.4,0.3 0.3,5.2 -3.9,0.2 v 8 z"><title>Mokronog - Trebelno</title></path>
<path id="poljcane" fill="#66ff00" d="m 734.8,261.8 -3.6,2.3 -3.7,0.1 -3.5,-3.9 -5,2.1 -1.3,-3.3 -3.3,-1.6 -7,0.4 -4.4,-1.1 1.8,6.6 -0.2,5.4 2.4,2.9 -2,5.5 2.4,2.6 -2.8,2.7 4.7,2.7 3,-6.7 6,0.4 4.3,-1.3 2,2.6 6.4,-1.9 3.4,3.1 3.6,-0.9 2.8,-4.2 -1.8,-4.1 -0.3,-7.6 z"><title>Poljčane</title></path>
<path id="rence-vogrsko" fill="#ffff00" d="m 110.1,476.9 0.1,-5 -5.2,-4.6 0.6,-3.9 5.1,-5.4 -0.2,-5 1.1,-5.9 -4.1,-0.6 -2.9,2.2 -3.9,-0.4 -1,6.5 -4.6,-0.8 -0.9,2.8 -4.2,4.9 -5.5,6.5 -0.5,4.8 9.5,3.5 8.2,1.5 0.7,-2.4 z"><title>Renče - Vogrsko</title></path>
<path id="sredisce-ob-dravi" fill="#ffff00" d="m 940.3,210.3 -2.9,3.8 -5.7,1.6 -2,-6.3 -5.1,-1.8 -0.1,4.3 -5,1.5 0.7,2.4 4.5,4.5 -3.1,2.9 2.7,4.5 -4,5.3 8.3,-0.9 1.4,3.5 2.9,-0.7 5.6,1.8 2.3,-1 9.6,-0.1 1.9,-8.9 -2.8,-3.9 -5.2,-4.2 z"><title>Središče ob Dravi</title></path>
<path id="straza" fill="#ff6300" d="m 544.6,513.7 0.5,4.8 7.8,9.1 -1.7,2.5 5,4.6 6.9,4 2.5,-4.2 -4.7,-4.6 4.1,-6.8 -1.6,-3.7 0.2,-4.7 3.7,-5.7 -1.9,-6.8 -2.5,-2.4 -5.2,-1.9 -3,4.1 -3.9,7.1 z"><title>Straža</title></path>
<path id="sveta-trojica-v-slov-goricah" fill="#ffc900" d="m 810,130.7 -4.9,3.1 -0.8,7.9 3.8,2.9 -1.4,2.2 1.2,4.2 -6.8,4.6 6.7,5.5 2.1,-0.3 4.2,-4.7 0.3,-2.6 12.2,8.4 0.2,-2.1 -1.6,0.6 -2.6,-7.7 -1.1,-6.6 8,-7.1 3.4,0.2 1.4,-2.8 -6.9,-3.5 -2.9,3.1 -7.1,0.6 z"><title>Sveta Trojica v Slovenskih goricah</title></path>
<path id="sveti-tomaz" fill="#ffff00" d="m 890.7,182.9 -2.8,-4.8 -14.8,0.7 -7,-4.8 -6.3,0.8 -3.7,-1.2 1.4,5.9 -0.8,3.1 6.5,7.5 -0.1,7.8 3.9,0.2 4.2,5.8 3.2,1.3 1.4,-5.4 7.4,2 6.3,-5.4 -0.5,-8.7 z"><title>Sveti Tomaž</title></path>
<path id="smarjeske-toplice" fill="#9aff00" d="m 621.7,474.3 1.7,-6.5 -5.7,1.2 -1.6,-3.6 0.2,-8.2 -5,-0.1 -2.4,-3.3 -2.7,-0.4 -4.2,-5.8 -5.4,4.9 3,7.6 -3.1,3.9 v 3.5 l -4.2,3.2 8,11.2 6.3,-2.8 3.5,4.8 3.2,-2.2 0.3,-2.8 z"><title>Šmarješke Toplice</title></path>
<path id="gorje" fill="#9aff00" d="m 198.6,206.4 -5.5,0.8 v 4.3 l -4.2,-0.1 -5.6,1.7 -4.5,9.5 -6.2,1.2 -4.6,3.8 -4.1,1.7 -12,7.1 7.8,8.9 12.3,-4.1 8.1,3.5 4.4,1 3.7,4.7 6.4,-0.9 3,0.6 3.1,-1.3 0.3,-3.6 7,-2.1 13.3,1.5 5.8,-2.8 2.1,-5.2 4.3,-5.2 -0.3,-5.2 -8,-8.2 -7.8,-2.9 z"><title>Gorje</title></path>
<path id="log-dragomer" fill="#9aff00" d="m 328.4,398.8 -5.3,0.1 -4.2,3.2 0.6,3.9 -7.3,1.9 2.3,3.5 4.1,3 4.4,0.9 2,-4.6 3.2,-1.2 7.1,0.4 -2.6,-4 -0.3,-4.4 z"><title>Log - Dragomer</title></path>
<path id="recica-ob-savinji" fill="#cdff00" d="m 509.2,256.4 -5.8,-4.5 -1.7,-6.2 -3.4,-0.5 -7,-5.2 -0.7,7.3 -2.8,1.1 -1.2,8 2,3.9 -3.2,6.8 -1.3,-0.2 0.2,2.7 3.1,4.2 1.6,-1.3 7.9,2.4 4.4,-2.3 7,-6.4 -1.3,-6.2 z"><title>Rečica ob Savinji</title></path>
<path id="sveti-jurij-v-slov-goricah" fill="#9aff00" d="m 787.4,109.3 -4.8,0.5 -4.6,5.8 -2.7,0.6 0.1,3.8 -3.8,9.4 0.2,6.1 2.7,4.6 5.1,1.2 3.7,-3.1 10.4,-5.7 -0.4,-4.1 6.3,-3.8 -6.2,-2.7 -1.6,-13 z"><title>Sveti Jurij v Slovenskih goricah</title></path>
<path id="sentrupert" fill="#ffed00" d="m 560,437.9 5.7,-1.1 0.7,-3.6 6.2,-2.9 v -1.7 l 3.1,-5.1 5.2,-6.5 -1.5,-2.9 -4.4,3.2 -3.5,0.2 -2.2,-4.2 -7.3,-4.2 -2.2,-4.8 -4.4,-1.5 -1,4.5 -8.1,-0.4 -1,4.2 -9.3,-0.1 v 3.1 l 2.3,5.7 -0.5,3.2 3.8,4.9 3.8,-1.3 6.3,8.5 2,-0.2 z"><title>Šentrupert</title></path>
<path id="mirna" fill="#7E7E7E" d="m 527,430.5 2.7,4.6 3.2,0.9 0.1,4.3 3.6,1.2 0.1,3.8 4.3,0.5 4.7,4.3 1.3,-1.9 4.9,-0.8 1.6,3.9 3,2.5 4.8,-1.9 3.9,-0.2 -0.3,-5.2 -3.4,-0.3 -1.5,-8.3 -6.3,-3 -2,0.2 -6.3,-8.5 -3.8,1.3 -3.8,-4.9 -5.6,3.2 -0.3,3.7 z"><title>Mirna</title></path>
<path id="ankaran" fill="#66ff00" d="m 116.9,601.3 -5.8,2.6 -1.5,3 5.5,2.1 3.4,2.7 1.9,4.2 -1.7,3.1 5.4,0.4 4.1,-3.1 -1.4,-5.4 -11.2,-5.8 z"><title>Ankaran / Ancorano</title></path>
</svg>
